<svg xmlns="http://www.w3.org/2000/svg" xmlns:xlink="http://www.w3.org/1999/xlink" viewBox="0 0 2148.14 1753.12"><defs><style>.cls-1,.cls-14,.cls-19,.cls-20,.cls-22,.cls-67,.cls-74,.cls-9{fill:none;}.cls-2{fill:#fce3bb;}.cls-3{fill:#c67c1a;}.cls-25,.cls-4{fill:#fff;}.cls-5{fill:#670006;}.cls-6{fill:#161616;}.cls-7{fill:#232323;}.cls-8{fill:#5b727c;}.cls-10,.cls-23,.cls-24,.cls-25,.cls-26,.cls-9{stroke:#000;}.cls-10,.cls-23,.cls-24,.cls-25,.cls-26,.cls-67,.cls-68,.cls-69,.cls-72,.cls-73,.cls-74,.cls-9{stroke-miterlimit:10;}.cls-10,.cls-24,.cls-25,.cls-9{stroke-width:6px;}.cls-10{fill:#b27234;}.cls-11{fill:#a09278;}.cls-12{fill:#1e1e1e;}.cls-13{fill:#2d2d2d;}.cls-14{stroke:#515151;}.cls-15{fill:#d3d3d3;}.cls-16{fill:#494949;}.cls-17{fill:#606060;stroke:#606060;}.cls-17,.cls-18,.cls-19,.cls-20,.cls-68,.cls-69,.cls-72{stroke-width:5px;}.cls-18{fill:#dbbd28;stroke:#bc8b42;}.cls-19{stroke:#777776;}.cls-19,.cls-22,.cls-74{stroke-linecap:round;}.cls-20{stroke:#e0c969;}.cls-21{fill:#777776;}.cls-22{stroke:#dbbd28;}.cls-22,.cls-23,.cls-26{stroke-width:4px;}.cls-23,.cls-24{fill:#6d5737;}.cls-26{fill:#68a5b5;}.cls-27{fill:#02beb3;}.cls-28{isolation:isolate;}.cls-29{clip-path:url(#clip-path);}.cls-30{fill:#01635d;}.cls-31{fill:#016761;}.cls-32{fill:#016a64;}.cls-33{fill:#016e68;}.cls-34{fill:#01726b;}.cls-35{fill:#01766f;}.cls-36{fill:#017a73;}.cls-37{fill:#017d76;}.cls-38{fill:#01817a;}.cls-39{fill:#01857d;}.cls-40{fill:#018981;}.cls-41{fill:#018d84;}.cls-42{fill:#029088;}.cls-43{fill:#02948c;}.cls-44{fill:#02988f;}.cls-45{fill:#029c93;}.cls-46{fill:#02a096;}.cls-47{fill:#02a39a;}.cls-48{fill:#02a79e;}.cls-49{fill:#02aba1;}.cls-50{fill:#02afa5;}.cls-51{fill:#02b3a8;}.cls-52{fill:#02b6ac;}.cls-53{fill:#02baaf;}.cls-54{fill:#20c6bc;}.cls-55{fill:#2dc9c0;}.cls-56{fill:#37ccc3;}.cls-57{fill:#3fcec5;}.cls-58{fill:#46cfc7;}.cls-59{fill:#4cd1c9;}.cls-60{fill:#52d3cb;}.cls-61{fill:#58d4cd;}.cls-62{fill:#5dd5ce;}.cls-63{fill:#62d7d0;}.cls-64{fill:#67d8d1;}.cls-65{clip-path:url(#clip-path-2);}.cls-66{clip-path:url(#clip-path-3);}.cls-67,.cls-68,.cls-69,.cls-72,.cls-73,.cls-74{stroke:#303030;}.cls-67{stroke-width:9px;}.cls-68{fill:#b7b7b7;}.cls-69{fill:#f4f4f4;}.cls-70{fill:#303030;}.cls-71,.cls-72,.cls-73{fill:#d1d1d1;}.cls-73{stroke-width:3px;}.cls-74{stroke-width:7px;}.cls-75{fill:#3f5e1e;}.cls-76{fill:#4d7f1d;}.cls-77{clip-path:url(#clip-path-4);}.cls-78{fill:#6bd9d3;}.cls-79{fill:#6fdad4;}.cls-80{fill:#74dbd5;}.cls-81{fill:#78dcd6;}.cls-82{fill:#7bddd7;}.cls-83{fill:#7fded9;}.cls-84{fill:#83dfda;}.cls-85{fill:#86e0db;}.cls-86{fill:#8ae1dc;}.cls-87{fill:#8de2dd;}.cls-88{fill:#90e3de;}.cls-89{clip-path:url(#clip-path-5);}.cls-90{clip-path:url(#clip-path-6);}.cls-91{clip-path:url(#clip-path-7);}.cls-92{clip-path:url(#clip-path-8);}</style><clipPath id="clip-path" transform="translate(-428.78 -355.88)"><path class="cls-1" d="M661.26,2062H520.32V1881.17H661.26Z"/></clipPath><clipPath id="clip-path-2" transform="translate(-428.78 -355.88)"><path class="cls-1" d="M661.26,1881.17V2062h0V1881.17Z"/></clipPath><clipPath id="clip-path-3" transform="translate(-428.78 -355.88)"><path class="cls-1" d="M520.32,2062V1881.17H661.25V2062H520.32Z"/></clipPath><clipPath id="clip-path-4" transform="translate(-428.78 -355.88)"><path class="cls-1" d="M2397.14,2063.1H2237.08l-36.36-215.31H2433.5Q2415.32,1955.46,2397.14,2063.1Z"/></clipPath><clipPath id="clip-path-5" transform="translate(-428.78 -355.88)"><path class="cls-1" d="M2317.11,1847.79q18.18,107.67,36.35,215.31h-72.7Z"/></clipPath><clipPath id="clip-path-6" transform="translate(-428.78 -355.88)"><path class="cls-1" d="M2433.5,1847.79q-18.18,107.67-36.36,215.31h0l36.35-215.31Z"/></clipPath><clipPath id="clip-path-7" transform="translate(-428.78 -355.88)"><path class="cls-1" d="M2317.11,1847.79l36.35,215.31h-72.7C2291.67,1998.51,2306.21,1912.39,2317.11,1847.79Z"/></clipPath><clipPath id="clip-path-8" transform="translate(-428.78 -355.88)"><path class="cls-1" d="M2237.08,2063.1l-36.36-215.31h232.76l-36.35,215.31H2237.08Z"/></clipPath></defs><title>experiences</title><g id="color"><path class="cls-2" d="M1271.27,810.57,1343,1139.88l20.41,93.48,13.14,60.14,174.25-37v50l-18.88,106.41s14.09,95.87,15.26,98.22,104.09,3.13,115.44,6.26,61.82-1.56,61.82-1.56l1.18-12.53,72.78-138.91L1751,991.48l-48.13-232.05s-83.35-104.86-96.65-103.69S1271.27,810.57,1271.27,810.57Z" transform="translate(-428.78 -355.88)"/><path class="cls-3" d="M1415,771.74s17.44,19,14.33,29.2-10.42,25.28-6.5,33.89,24.52,23.74,24.52,23.74,16.17,10.17,14.87,24.78S1453,939.87,1447.05,957s-8.31,43.22-4.14,50.26,15.39,25.31,29.48,31.83,48.26,7,48.26,7-38-20.35-37.63-56.61,6.33-61.56,6.33-61.56l9.91-18-1-89.22s-11.22-21.91-8.09-26.09S1553,751.09,1553,751.09l122.09,20.61s28.69,18.52,28.43,42.26-11.48,77.21-6.26,111.65,16.67,64.17,24.51,74.61,19.84,25.82,16.71,54.52-16.18,63.13-11,74.09,48,49.3,43,73.82-43,49.57-48,65.22,20.6,75.65,20.6,75.65,17.48,34.18-9.39,74.09-48.9.78-48.71,0-10-33.39-10-33.39-13.57,43.56,10.17,70.69,56.18,23.94,80,13.14,51.18-46.62,51.18-46.62l15.87-20.2,4.82,66.73,8.4-4,53-56.8s18.26-37,18.56-38,6.3-23.85,6.3-23.85L1997,1381s18.11-27.19,19.49-59.6-14.79-81.62-14.79-81.62l-4.81-11s29.85,20,53.85,16.1,27.33-36.51,27.33-36.51l-21.33,9.91-30.78-3.65s-14.56-3.91-11.72-39.91,3.89-55.57,3.89-55.57-1.81-16.15-2.37-17-17.19-9.1-18.5-9.89-20.56-8.55-26.58-16.47-9.7-15.34-6.44-22.86,23.37-47.54,20-73.36-23.86-52.86-23.86-52.86l-21.87-20.53-26.26-16.65S1949.7,875.78,1962,863s15.43-37,15.43-37-4.74-28.55-4.92-29.29-10.73,17.29-26.9,21.2-33.24-6.83-33.24-6.83l-31.87-24.63-18.2-26.88-5.14-27s.89-56.22-6.46-81.7-31.07-60.68-68.65-74.38-74.84-15.53-74.84-15.53-25.62-.09-26.92,0-25.92-31-46.53-42.61-42.48-23.47-55.19-23.23-40.18,3.76-57.4,12.1-39.22,23.74-39.91,26.61-14.34,15.51-14.34,15.51l-148.44,63.28L1271,648s-22.83,24.86-26.25,30.92-18.2,23.78-18.2,23.78-54.45,20-72.7,60.55-20.46,63.36-8.28,86.74,44,58.92,48.43,82,1.44,32.61,1.44,32.61L1174,1025s-11.27,22.44,8.3,49.57,83,60.21,95.88,78.76,19.34,27.53,4.61,51.59-30.86,49.13-27.45,66.86,18.59,30.52,21.19,32.88,24.24,18.39,24.27,33.57-.3,47.55-29.53,65.29-54-2.18-54-2.18l-15.52-18.95s-2.39,48.27,27.54,64.44,51.88,13.92,58.88,13,54.52-14.61,54.52-14.61l200.38-95.73s8.71-51.07,9.68-65.16a211.75,211.75,0,0,0-.19-28.17l-174.72,37.37L1361.07,1221l118.76-12.33,58.87-4.65s68.1-8.85,102.73-28.22,62.09-56.87,44.09-98.61-86.63-69.85-86.63-69.85-53.18,57.85-105,83.68-104.22,37-104.22,37L1343,1139.88l-33.86-152.71-36.52-172.95Z" transform="translate(-428.78 -355.88)"/><path class="cls-4" d="M1358.39,1139.26l10.31,17s55.39-8.4,99.3-19.56,86.57-25.05,86.57-25.05l3.32-15.65s23.09,3.32,30.13,0,5.28-22.31,5.28-22.31l33.27,4.31s8-12.33,10.36-27.2S1635,1025,1635,1025l-32.89-18.85s-63,61.83-97.83,78.65-99.39,41.87-99.39,41.87Z" transform="translate(-428.78 -355.88)"/><path class="cls-5" d="M1686.76,1127.07c-1.11-.4-24.39-10-41-4.5s-32.9,22.79-32.9,22.79l-4.82.89s-36-14.49-52.87,12.12L1538.33,1185l.37,19s52.26-1.22,87.08-19.61,48.43-31.48,49.89-35.61S1686.76,1127.07,1686.76,1127.07Z" transform="translate(-428.78 -355.88)"/><path class="cls-6" d="M1778.91,795s-33.13,4.61-47,37-10.19,81.13-10.19,81.13,8.62,56.87,24.27,81.13,37.83,42.21,61.31,45,49.3-7.41,64.43-20.71,20.87-27.39,20.87-27.39l7.35-40.44Z" transform="translate(-428.78 -355.88)"/><path class="cls-7" d="M1784.13,796s-23.34,8.61-27.32,52.43S1768,947,1775.26,963.7s23.45,48.13,64.55,42.45,60.19-43,60.19-43l5.25-30.78-7.9-75.65-13.57-42.52L1867.87,790l-11.74-3.55Z" transform="translate(-428.78 -355.88)"/><path class="cls-7" d="M1275.89,638.7s2.07-7.89,39.68-40.23,126.15-46.62,126.15-46.62,76.85-8.68,125.37,1.76,85,19.56,115.82,30.52,74.87,42.26,101.74,75.91,56.87,86.09,68.09,122.61,33.65,99.13,19.56,131.74-30.78,34.7-43.82,29.74-19.57-32.09-20.61-33.65-8.61-52-9.52-53.37-9.78-59.07-9.78-59.07-14.87-45.39-21.92-57.65-33.91-47-57.13-62.87-44.35-32.35-71-43.56S1538.91,606,1538.91,606s-73.56-9.65-98.61-9.13-91,8.09-91,8.09l-38.09,13.57Z" transform="translate(-428.78 -355.88)"/><path class="cls-8" d="M1330,1869s-29.87-43.65-25-58,31-11.09,31-11.09-8-41.87-2.88-46.82a49.23,49.23,0,0,1,12.13-8.09l68.44,14.09,54.3,23.74,14.11,17.74V1869s-33.68,26.52-36.55,28.09-53-.52-60.52-5S1330,1869,1330,1869Z" transform="translate(-428.78 -355.88)"/><polygon class="cls-8" points="1053.22 1602.12 1053.36 1692.12 1216.57 1726.17 1525.22 1713.65 1524.32 1664.15 1522.22 1557.12 1053.22 1602.12"/><path class="cls-2" d="M1396.67,1873.24s-4.43-18.53-22.4-22.25-34.29,11.12-34.29,11.12-16.7,16.86-17.89,18.27-7.31,9.11-7.9,9.9,3.51,61.33,4.81,62.37,10.52,2.8,10.52,2.8l17.65-10.1,46.22-51.65Z" transform="translate(-428.78 -355.88)"/><path class="cls-2" d="M1440.24,1884.56s.85-23.47-6.2-23.21-49.44,9.81-73,49.52-28.62,99.67-16.53,107.38,32.7-2.78,32.7-2.78l16.21-13.25Z" transform="translate(-428.78 -355.88)"/><path class="cls-2" d="M1535,1929l356.09-99.48,136.69,64.18L2013,1923l-379.6,60.26L1554,1995s-17.26,18.61-42,12-33.81-38.5-34.07-39.18-6.59-21.28-6.59-21.28-30.28,44.58-43.32,55.91-22.27,19.19-28.34,12-12.71-41.67,0-74.54,50.1-62.31,50.1-62.31,13.54-13.69,24.21-9.6,43.82,39.8,43.82,39.8Z" transform="translate(-428.78 -355.88)"/><path class="cls-8" d="M1552,1287l-52,29.54-30.48,22.29-9.13,9.65-129.65,50.09L1352.87,1745s39.08,6.85,56.13,12.52,59,25.31,59,25.31l14,20.63.14,69.81,41.64,38.43L1535,1929l280.9-78.47s-8-52.69,3.08-58.89,49-3.66,49-3.66-23.52-49.68-13-56,22-1,22-1l-13.06-286.8-25.55,26.1-6.52-72.52s-36.26,56.35-63.39,67.83-34.18,10.56-35,10.89-22.17-2.8-22.17-2.8l-6.26,17.21s-61.57,10-81.92,8.28-71.23-13.19-71.23-13.19-14.85-90.3-12.11-121.09,12.17-64.17,12.17-64.17Z" transform="translate(-428.78 -355.88)"/><path class="cls-8" d="M1819.23,1849.6l57.77-16.14s41.74,13.28,68.61,28.93,59,47.22,59,47.22l6.26,13.75-48.61,9.64s31.49,20.73,53.25,26.57,29.5,10.52,34,2.18,11.19-44.6,11.3-45.85S2062,1888,2062,1888s46.48-13.78,48-27-25.47-42.45-45.89-60.31S2031,1778.9,2031,1778.9l3.09-17.73-5.66-100.94-12.63-124.74L1997,1381l-73.63-35.7s-5,36.43-19.33,53.83-43,50.83-43,50.83l6.91,83.44,10,199.1s-23.79-3.65-24.74,2.07,15.91,54,15.91,54-46-9.21-49.94,1.56-3.53,50.09-3.53,51.13S1819.23,1849.6,1819.23,1849.6Z" transform="translate(-428.78 -355.88)"/><path class="cls-4" d="M1553.39,1487.26S1588,1498,1625,1499.19s83-10.36,83-10.36l-38.35,85.1-41.09,69.66-21.32,33.84-20.35-51.65-25.24-94.89Z" transform="translate(-428.78 -355.88)"/></g><g id="line"><path class="cls-9" d="M1414,771s18,12,15,34-11.32,26.3-3.16,37.65S1463,858,1463,888s-23,78-22,103,25,48,39,52,44,5,44,4-38-17-41-63,17-75,17-75V820.67S1486,802,1493,792s50-36,50-36l124,11s29,10,36,41-19,93,0,153,24,31,34,65-15,86-8,104,50,45,41,79-55,34-47,76,37,74,23,110-35,52-53,34-16-56-16-56-29,77,36,100,119-75,119-75l7,72s54-49,68-76,19-63,19-63" transform="translate(-428.78 -355.88)"/><path class="cls-9" d="M1274.5,826.5,1343,1139.88s81-13.88,147-46.88,110-87,110-87,94,41,92,97-60,95-161,103-170.28,15.25-170.28,15.25l15.78,72.25L1553,1256s2,57-12,97" transform="translate(-428.78 -355.88)"/><path class="cls-9" d="M1635,1025s2,20,0,31-9,23-9,23l-33-4s2,19-6,21-30,0-30,0l-3,16s-73,22-107,30-79,15-79,15l-10.93-19.9" transform="translate(-428.78 -355.88)"/><path class="cls-9" d="M1687,1128s-25-15-50-2-25,22-25,22-25-13-46-1-29,40-27,57" transform="translate(-428.78 -355.88)"/><path class="cls-10" d="M1486,709s-5,9-5,26,5,27,5,27,66-3,109,3,79,15,79,15V762s-48-42-94-53S1486,709,1486,709Z" transform="translate(-428.78 -355.88)"/><path class="cls-10" d="M1243,826l10,12s49-28,79-39,83-19,83-19-3-26-9-38-29-25-29-25-62,18-88,43S1243,826,1243,826Z" transform="translate(-428.78 -355.88)"/><path class="cls-9" d="M1552,1307s-26,43-2,169,57,202,57,202,69-104,106-205" transform="translate(-428.78 -355.88)"/><path class="cls-9" d="M1401,1500s-29,92,25,149,359,34,422,25" transform="translate(-428.78 -355.88)"/><path class="cls-9" d="M1554,1286s-67,33-87,57-31,55-31,55l64,55-38,29s52.2,140.16,145.2,201.16" transform="translate(-428.78 -355.88)"/><path class="cls-9" d="M1837.13,1450.76,1789,1474l30,24s-166.33,163.16-212.33,185.16" transform="translate(-428.78 -355.88)"/><line class="cls-9" x1="1053.25" y1="1623.06" x2="1053.22" y2="1696.12"/><line class="cls-9" x1="1053.36" y1="1317.94" x2="1053.29" y2="1514.86"/><line class="cls-9" x1="1173.75" y1="1630.89" x2="1173.11" y2="1709.73"/><line class="cls-9" x1="1176.22" y1="1330" x2="1174.39" y2="1553.21"/><line class="cls-9" x1="1522.22" y1="1577.12" x2="1525.43" y2="1709.73"/><polyline class="cls-9" points="1035.69 990.27 901.22 1043.12 924.22 1391.12"/><path class="cls-9" d="M1552,1486s65.62,27.4,154.81,3.2" transform="translate(-428.78 -355.88)"/><path class="cls-9" d="M1877,1834s60,21,91,43,45,46,45,46-254,42-323,52-136,20-136,20-12,19-42,12-41-62-41-62-48,77-67,72-9-69,3-89,50-69,70-59,58,60,58,60Z" transform="translate(-428.78 -355.88)"/><path class="cls-9" d="M1440,1887s3-23-6-24-76,12-91,97,18,67,49,42" transform="translate(-428.78 -355.88)"/><path class="cls-9" d="M1397,1875s-3-26-34-25-102,106-68,111,52.53-20,52.53-20" transform="translate(-428.78 -355.88)"/><path class="cls-9" d="M1330,1869s-29-44-25-58,32-11,32-11-12-50,4-53,125.29,14.65,141.14,56.83" transform="translate(-428.78 -355.88)"/><path class="cls-9" d="M1815.94,1851s-5.94-56,4.06-60,49-3,49-3-24-50-14-56,108,16,162,40,97,73,93,89-48,27-48,27,0,66-15,76-87-31-87-31" transform="translate(-428.78 -355.88)"/><line class="cls-9" x1="1439.22" y1="1160.12" x2="1449.22" y2="1375.12"/><path class="cls-9" d="M1926,1346.14l71,34.86s43.58,328.3,36.29,399.15" transform="translate(-428.78 -355.88)"/><path class="cls-9" d="M1333,1445.05s-29,24-83,11-48-79-48-79,12,42,53,34,54-64,42-85-57-36-37-81,45-53,21-88-128-66-107-132,28-59,20-93-77-80-49-150,82-78,82-78,43-91,146-103,214,3,305,54,105,123,114,161,9,130,43,130,41-32,41-63-38-222-168-286-320-73-417,22c0,0-16,18-20,29" transform="translate(-428.78 -355.88)"/><path class="cls-9" d="M1468,548s69-70,127-49,84,62,84,62,109-9,154,54,5,121,40,163,72,47,84,36,14-23,14-23,16,51-9,72-53,25-53,25,76,34,74,98-38,67-9,93,48,3,45,51-18,85,19,88,40-14,40-14,3,41-30,41-52-18-52-18,46,88,1,154" transform="translate(-428.78 -355.88)"/><path class="cls-9" d="M1787,795.24S1726,786,1722,883s45,153,87,156,88-29,91-79" transform="translate(-428.78 -355.88)"/><path class="cls-9" d="M1854,786.41c46,8.41,49,122.59,50,130.59s12,65-56,87-88-70-91-134,30-74.76,30-74.76" transform="translate(-428.78 -355.88)"/></g><g id="bureau"><rect class="cls-11" y="1706.12" width="2076.65" height="47" rx="3"/><rect class="cls-12" x="893.22" y="1683.12" width="280" height="23"/><rect class="cls-13" x="327.22" y="1683.12" width="566" height="23"/><path class="cls-13" d="M1322.09,2039.15H756.21l-69.91-372a3.66,3.66,0,0,1,3.6-4.35h561.45Z" transform="translate(-428.78 -355.88)"/><polygon class="cls-12" points="916.43 1683.27 892.91 1683.27 822.35 1306.95 845.87 1306.95 916.43 1683.27"/><line class="cls-14" x1="327.22" y1="1683.12" x2="893.22" y2="1683.12"/><ellipse class="cls-15" cx="560.74" cy="1449.12" rx="38.35" ry="21.91"/></g><g id="bulle"><circle class="cls-4" cx="426.51" cy="659.11" r="148.52"/><polygon class="cls-4" points="676.7 687.29 555.1 720.15 555.1 654.42 676.7 687.29"/><circle class="cls-4" cx="1931.22" cy="216.91" r="216.91"/><polygon class="cls-4" points="1646.55 458.85 1833.98 385.57 1771.54 301.13 1646.55 458.85"/></g><g id="Ampoule"><path class="cls-16" d="M857.47,1111.69l-4-2a3,3,0,0,1,1.35-5.68h7.92a3,3,0,0,1,1.35,5.68l-4,2A3,3,0,0,1,857.47,1111.69Z" transform="translate(-428.78 -355.88)"/><path class="cls-17" d="M406.43,712h48.09a0,0,0,0,1,0,0v17a20,20,0,0,1-20,20h-8.09a20,20,0,0,1-20-20V712A0,0,0,0,1,406.43,712Z"/><path class="cls-18" d="M883.3,1066.89a50.61,50.61,0,0,1,12.35-33.15l.25-.24a49.17,49.17,0,1,0-73.7.51l.09.12c7.46,8.62,12.92,20.47,12.92,32.77" transform="translate(-428.78 -355.88)"/><line class="cls-19" x1="411.53" y1="719.19" x2="449.41" y2="719.19"/><line class="cls-19" x1="411.53" y1="727.35" x2="449.41" y2="727.35"/><line class="cls-19" x1="411.58" y1="735.52" x2="449.46" y2="735.52"/><line class="cls-19" x1="411.53" y1="743.68" x2="449.41" y2="743.68"/><path class="cls-20" d="M848.86,1066.9V1020s-15.93-17.88-7.15-24.21,17.54,5.2,17.54,5.2,11.54-13.33,20.64-3.58-9.75,23.4-9.75,23.4v46.1" transform="translate(-428.78 -355.88)"/><rect class="cls-21" x="416.34" y="719.19" width="4.96" height="24.49"/><line class="cls-22" x1="431.85" y1="575.76" x2="431.85" y2="556.48"/><line class="cls-22" x1="399.33" y1="584.11" x2="389.69" y2="567.41"/><line class="cls-22" x1="471.35" y1="567.41" x2="461.71" y2="584.11"/><line class="cls-22" x1="497.83" y1="593.9" x2="481.14" y2="603.54"/><line class="cls-22" x1="377.54" y1="604.76" x2="360.84" y2="595.12"/></g><g id="lunettes"><path class="cls-23" d="M1486.65,861.51l1.42,7.28c-6.91-3.17-17.58-4-29-1.82-12.12,2.37-22.12,7.63-27.09,13.55l-1.21-6.24-11.91,2.33,8.85,45.39,11.9-2.32-1-5L1435.35,898l-.14-.75c5-5.93,15-11.19,27.08-13.55,11.46-2.23,22.12-1.36,29,1.82l.44,2.27,3.26,16.7.47,2.44,11.91-2.32-8.85-45.39Z" transform="translate(-428.78 -355.88)"/><path class="cls-24" d="M1483.5,828.5s78-45,175-20c0,0,42,138-64,151S1480.5,870.5,1483.5,828.5Z" transform="translate(-428.78 -355.88)"/><path class="cls-25" d="M1500.41,838.47s63.26-36.5,141.93-16.22c0,0,34.07,111.92-51.91,122.46S1498,872.53,1500.41,838.47Z" transform="translate(-428.78 -355.88)"/><path class="cls-24" d="M1253.15,881.64s71-55.36,170.55-44c0,0,60.68,130.86-42.5,158.4S1256,923.65,1253.15,881.64Z" transform="translate(-428.78 -355.88)"/><path class="cls-25" d="M1271.27,889.17s57.61-44.89,138.33-35.69c0,0,49.21,106.13-34.47,128.47S1273.57,923.24,1271.27,889.17Z" transform="translate(-428.78 -355.88)"/><circle cx="933.72" cy="590.62" r="10.5"/><circle class="cls-26" cx="1133.22" cy="548.12" r="16"/></g><g id="tasse"><path class="cls-27" d="M663,2019.22h34.94a15.5,15.5,0,0,0,15.45-15.46V1953.3a15.5,15.5,0,0,0-15.45-15.46H651.57v-17.19a15.45,15.45,0,0,1,2.65-.23h63.15a15.5,15.5,0,0,1,15.46,15.45v85.33a15.51,15.51,0,0,1-15.46,15.46H654.22a14.51,14.51,0,0,1-2.65-.24v-17.2Z" transform="translate(-428.78 -355.88)"/><g class="cls-28"><g class="cls-28"><g class="cls-29"><g class="cls-28"><path class="cls-30" d="M661.26,2062V1881.17h-14V2062h14" transform="translate(-428.78 -355.88)"/><path class="cls-31" d="M647.3,2062V1881.17h-4.12V2062h4.12" transform="translate(-428.78 -355.88)"/><path class="cls-32" d="M643.18,2062V1881.17h-3.55V2062h3.55" transform="translate(-428.78 -355.88)"/><path class="cls-33" d="M639.63,2062V1881.17h-3.28V2062h3.28" transform="translate(-428.78 -355.88)"/><path class="cls-34" d="M636.35,2062V1881.17h-3.14V2062h3.14" transform="translate(-428.78 -355.88)"/><path class="cls-35" d="M633.21,2062V1881.17h-3V2062h3" transform="translate(-428.78 -355.88)"/><path class="cls-36" d="M630.24,2062V1881.17H627.3V2062h2.94" transform="translate(-428.78 -355.88)"/><path class="cls-37" d="M627.3,2062V1881.17h-2.93V2062h2.93" transform="translate(-428.78 -355.88)"/><path class="cls-38" d="M624.37,2062V1881.17h-2.84V2062h2.84" transform="translate(-428.78 -355.88)"/><path class="cls-39" d="M621.53,2062V1881.17h-2.86V2062h2.86" transform="translate(-428.78 -355.88)"/><path class="cls-40" d="M618.67,2062V1881.17h-2.79V2062h2.79" transform="translate(-428.78 -355.88)"/><path class="cls-41" d="M615.88,2062V1881.17h-2.72V2062h2.72" transform="translate(-428.78 -355.88)"/><path class="cls-42" d="M613.16,2062V1881.17h-2.59V2062h2.59" transform="translate(-428.78 -355.88)"/><path class="cls-43" d="M610.57,2062V1881.17h-2.44V2062h2.44" transform="translate(-428.78 -355.88)"/><path class="cls-44" d="M608.13,2062V1881.17H606V2062h2.15" transform="translate(-428.78 -355.88)"/><path class="cls-45" d="M606,2062V1881.17h-2.17V2062H606" transform="translate(-428.78 -355.88)"/><path class="cls-46" d="M603.81,2062V1881.17h-1.74V2062h1.74" transform="translate(-428.78 -355.88)"/><path class="cls-47" d="M602.07,2062V1881.17h-1.65V2062h1.65" transform="translate(-428.78 -355.88)"/><path class="cls-48" d="M600.42,2062V1881.17h-1.66V2062h1.66" transform="translate(-428.78 -355.88)"/><path class="cls-49" d="M598.76,2062V1881.17h-1.51V2062h1.51" transform="translate(-428.78 -355.88)"/><path class="cls-50" d="M597.25,2062V1881.17H596V2062h1.29" transform="translate(-428.78 -355.88)"/><path class="cls-51" d="M596,2062V1881.17h-1.29V2062H596" transform="translate(-428.78 -355.88)"/><path class="cls-52" d="M594.67,2062V1881.17h-1.3V2062h1.3" transform="translate(-428.78 -355.88)"/><path class="cls-53" d="M593.37,2062V1881.17h-1.3V2062h1.3" transform="translate(-428.78 -355.88)"/><path class="cls-27" d="M592.07,2062V1881.17H590.9V2062h1.17" transform="translate(-428.78 -355.88)"/><path class="cls-54" d="M590.9,2062V1881.17h-1.16V2062h1.16" transform="translate(-428.78 -355.88)"/><path class="cls-55" d="M589.74,2062V1881.17h-1.15V2062h1.15" transform="translate(-428.78 -355.88)"/><path class="cls-56" d="M588.59,2062V1881.17h-1.15V2062h1.15" transform="translate(-428.78 -355.88)"/><path class="cls-57" d="M587.44,2062V1881.17H586.3V2062h1.14" transform="translate(-428.78 -355.88)"/><path class="cls-58" d="M586.3,2062V1881.17H585V2062h1.3" transform="translate(-428.78 -355.88)"/><path class="cls-59" d="M585,2062V1881.17h-1.3V2062H585" transform="translate(-428.78 -355.88)"/><path class="cls-60" d="M583.7,2062V1881.17h-1.3V2062h1.3" transform="translate(-428.78 -355.88)"/><path class="cls-61" d="M582.4,2062V1881.17h-1.29V2062h1.29" transform="translate(-428.78 -355.88)"/><path class="cls-62" d="M581.11,2062V1881.17h-1.94V2062h1.94" transform="translate(-428.78 -355.88)"/><path class="cls-63" d="M579.17,2062V1881.17h-2.4V2062h2.4" transform="translate(-428.78 -355.88)"/><path class="cls-64" d="M576.77,2062V1881.17h-7.55V2062h7.55" transform="translate(-428.78 -355.88)"/><path class="cls-63" d="M569.22,2062V1881.17h-1.94V2062h1.94" transform="translate(-428.78 -355.88)"/><path class="cls-62" d="M567.28,2062V1881.17h-1.91V2062h1.91" transform="translate(-428.78 -355.88)"/><path class="cls-61" d="M565.37,2062V1881.17h-1.63V2062h1.63" transform="translate(-428.78 -355.88)"/><path class="cls-60" d="M563.74,2062V1881.17h-1.4V2062h1.4" transform="translate(-428.78 -355.88)"/><path class="cls-59" d="M562.34,2062V1881.17H561V2062h1.39" transform="translate(-428.78 -355.88)"/><path class="cls-58" d="M561,2062V1881.17h-1.37V2062H561" transform="translate(-428.78 -355.88)"/><path class="cls-57" d="M559.58,2062V1881.17h-1.46V2062h1.46" transform="translate(-428.78 -355.88)"/><path class="cls-56" d="M558.12,2062V1881.17h-1.45V2062h1.45" transform="translate(-428.78 -355.88)"/><path class="cls-55" d="M556.67,2062V1881.17h-1.42V2062h1.42" transform="translate(-428.78 -355.88)"/><path class="cls-54" d="M555.25,2062V1881.17h-1.69V2062h1.69" transform="translate(-428.78 -355.88)"/><path class="cls-27" d="M553.56,2062V1881.17h-1.83V2062h1.83" transform="translate(-428.78 -355.88)"/><path class="cls-53" d="M551.73,2062V1881.17h-1.88V2062h1.88" transform="translate(-428.78 -355.88)"/><path class="cls-52" d="M549.85,2062V1881.17h-2.44V2062h2.44" transform="translate(-428.78 -355.88)"/><path class="cls-51" d="M547.41,2062V1881.17h-2.6V2062h2.6" transform="translate(-428.78 -355.88)"/><path class="cls-50" d="M544.81,2062V1881.17h-2.89V2062h2.89" transform="translate(-428.78 -355.88)"/><path class="cls-49" d="M541.92,2062V1881.17H539V2062h2.92" transform="translate(-428.78 -355.88)"/><path class="cls-48" d="M539,2062V1881.17h-2.64V2062H539" transform="translate(-428.78 -355.88)"/><path class="cls-47" d="M536.36,2062V1881.17H534V2062h2.37" transform="translate(-428.78 -355.88)"/><path class="cls-46" d="M534,2062V1881.17h-2.08V2062H534" transform="translate(-428.78 -355.88)"/><path class="cls-45" d="M531.91,2062V1881.17H530.1V2062h1.81" transform="translate(-428.78 -355.88)"/><path class="cls-44" d="M530.1,2062V1881.17h-1.64V2062h1.64" transform="translate(-428.78 -355.88)"/><path class="cls-43" d="M528.46,2062V1881.17H527V2062h1.44" transform="translate(-428.78 -355.88)"/><path class="cls-42" d="M527,2062V1881.17h-1.3V2062H527" transform="translate(-428.78 -355.88)"/><path class="cls-41" d="M525.72,2062V1881.17h-1.15V2062h1.15" transform="translate(-428.78 -355.88)"/><path class="cls-40" d="M524.57,2062V1881.17h-1V2062h1" transform="translate(-428.78 -355.88)"/><path class="cls-39" d="M523.56,2062V1881.17h-.89V2062h.89" transform="translate(-428.78 -355.88)"/><path class="cls-38" d="M522.67,2062V1881.17h-.76V2062h.76" transform="translate(-428.78 -355.88)"/><path class="cls-37" d="M521.91,2062V1881.17h-.63V2062h.63" transform="translate(-428.78 -355.88)"/><path class="cls-36" d="M521.28,2062V1881.17h-.49V2062h.49" transform="translate(-428.78 -355.88)"/><path class="cls-35" d="M520.79,2062V1881.17h-.33V2062h.33" transform="translate(-428.78 -355.88)"/><path class="cls-34" d="M520.46,2062V1881.17h-.14V2062h.14" transform="translate(-428.78 -355.88)"/><polyline class="cls-33" points="91.54 1706.12 91.54 1525.3 91.53 1525.3 91.53 1706.12 91.54 1706.12"/></g></g></g><g class="cls-28"><g class="cls-65"><g class="cls-28"><path class="cls-34" d="M661.25,2062V1881.17h0V2062h0" transform="translate(-428.78 -355.88)"/><polyline class="cls-33" points="232.47 1706.12 232.47 1525.3 232.47 1525.3 232.47 1706.12 232.47 1706.12"/></g></g></g><g class="cls-28"><g class="cls-66"><g class="cls-28"><path class="cls-30" d="M520.32,2062V1881.17h13.95V2062H520.32" transform="translate(-428.78 -355.88)"/><path class="cls-31" d="M534.27,2062V1881.17h4.12V2062h-4.12" transform="translate(-428.78 -355.88)"/><path class="cls-32" d="M538.39,2062V1881.17h3.55V2062h-3.55" transform="translate(-428.78 -355.88)"/><path class="cls-33" d="M541.94,2062V1881.17h3.28V2062h-3.28" transform="translate(-428.78 -355.88)"/><path class="cls-34" d="M545.22,2062V1881.17h3.15V2062h-3.15" transform="translate(-428.78 -355.88)"/><path class="cls-35" d="M548.37,2062V1881.17h3V2062h-3" transform="translate(-428.78 -355.88)"/><path class="cls-36" d="M551.33,2062V1881.17h2.94V2062h-2.94" transform="translate(-428.78 -355.88)"/><path class="cls-37" d="M554.27,2062V1881.17h2.93V2062h-2.93" transform="translate(-428.78 -355.88)"/><path class="cls-38" d="M557.2,2062V1881.17H560V2062H557.2" transform="translate(-428.78 -355.88)"/><path class="cls-39" d="M560,2062V1881.17h2.87V2062H560" transform="translate(-428.78 -355.88)"/><path class="cls-40" d="M562.91,2062V1881.17h2.79V2062h-2.79" transform="translate(-428.78 -355.88)"/><path class="cls-41" d="M565.7,2062V1881.17h2.71V2062H565.7" transform="translate(-428.78 -355.88)"/><path class="cls-42" d="M568.41,2062V1881.17H571V2062h-2.59" transform="translate(-428.78 -355.88)"/><path class="cls-43" d="M571,2062V1881.17h2.44V2062H571" transform="translate(-428.78 -355.88)"/><path class="cls-44" d="M573.44,2062V1881.17h2.15V2062h-2.15" transform="translate(-428.78 -355.88)"/><path class="cls-45" d="M575.59,2062V1881.17h2.17V2062h-2.17" transform="translate(-428.78 -355.88)"/><path class="cls-46" d="M577.76,2062V1881.17h1.74V2062h-1.74" transform="translate(-428.78 -355.88)"/><path class="cls-47" d="M579.5,2062V1881.17h1.65V2062H579.5" transform="translate(-428.78 -355.88)"/><path class="cls-48" d="M581.15,2062V1881.17h1.67V2062h-1.67" transform="translate(-428.78 -355.88)"/><path class="cls-49" d="M582.82,2062V1881.17h1.51V2062h-1.51" transform="translate(-428.78 -355.88)"/><path class="cls-50" d="M584.33,2062V1881.17h1.28V2062h-1.28" transform="translate(-428.78 -355.88)"/><path class="cls-51" d="M585.61,2062V1881.17h1.29V2062h-1.29" transform="translate(-428.78 -355.88)"/><path class="cls-52" d="M586.9,2062V1881.17h1.3V2062h-1.3" transform="translate(-428.78 -355.88)"/><path class="cls-53" d="M588.2,2062V1881.17h1.31V2062H588.2" transform="translate(-428.78 -355.88)"/><path class="cls-27" d="M589.51,2062V1881.17h1.16V2062h-1.16" transform="translate(-428.78 -355.88)"/><path class="cls-54" d="M590.67,2062V1881.17h1.16V2062h-1.16" transform="translate(-428.78 -355.88)"/><path class="cls-55" d="M591.83,2062V1881.17H593V2062h-1.15" transform="translate(-428.78 -355.88)"/><path class="cls-56" d="M593,2062V1881.17h1.15V2062H593" transform="translate(-428.78 -355.88)"/><path class="cls-57" d="M594.13,2062V1881.17h1.14V2062h-1.14" transform="translate(-428.78 -355.88)"/><path class="cls-58" d="M595.27,2062V1881.17h1.3V2062h-1.3" transform="translate(-428.78 -355.88)"/><path class="cls-59" d="M596.57,2062V1881.17h1.3V2062h-1.3" transform="translate(-428.78 -355.88)"/><path class="cls-60" d="M597.87,2062V1881.17h1.3V2062h-1.3" transform="translate(-428.78 -355.88)"/><path class="cls-61" d="M599.17,2062V1881.17h1.29V2062h-1.29" transform="translate(-428.78 -355.88)"/><path class="cls-62" d="M600.46,2062V1881.17h1.94V2062h-1.94" transform="translate(-428.78 -355.88)"/><path class="cls-63" d="M602.4,2062V1881.17h2.4V2062h-2.4" transform="translate(-428.78 -355.88)"/><path class="cls-64" d="M604.8,2062V1881.17h7.55V2062H604.8" transform="translate(-428.78 -355.88)"/><path class="cls-63" d="M612.35,2062V1881.17h1.94V2062h-1.94" transform="translate(-428.78 -355.88)"/><path class="cls-62" d="M614.29,2062V1881.17h1.91V2062h-1.91" transform="translate(-428.78 -355.88)"/><path class="cls-61" d="M616.2,2062V1881.17h1.64V2062H616.2" transform="translate(-428.78 -355.88)"/><path class="cls-60" d="M617.84,2062V1881.17h1.4V2062h-1.4" transform="translate(-428.78 -355.88)"/><path class="cls-59" d="M619.24,2062V1881.17h1.38V2062h-1.38" transform="translate(-428.78 -355.88)"/><path class="cls-58" d="M620.62,2062V1881.17H622V2062h-1.37" transform="translate(-428.78 -355.88)"/><path class="cls-57" d="M622,2062V1881.17h1.46V2062H622" transform="translate(-428.78 -355.88)"/><path class="cls-56" d="M623.45,2062V1881.17h1.45V2062h-1.45" transform="translate(-428.78 -355.88)"/><path class="cls-55" d="M624.9,2062V1881.17h1.43V2062H624.9" transform="translate(-428.78 -355.88)"/><path class="cls-54" d="M626.33,2062V1881.17H628V2062h-1.69" transform="translate(-428.78 -355.88)"/><path class="cls-27" d="M628,2062V1881.17h1.82V2062H628" transform="translate(-428.78 -355.88)"/><path class="cls-53" d="M629.84,2062V1881.17h1.88V2062h-1.88" transform="translate(-428.78 -355.88)"/><path class="cls-52" d="M631.72,2062V1881.17h2.45V2062h-2.45" transform="translate(-428.78 -355.88)"/><path class="cls-51" d="M634.17,2062V1881.17h2.59V2062h-2.59" transform="translate(-428.78 -355.88)"/><path class="cls-50" d="M636.76,2062V1881.17h2.89V2062h-2.89" transform="translate(-428.78 -355.88)"/><path class="cls-49" d="M639.65,2062V1881.17h2.92V2062h-2.92" transform="translate(-428.78 -355.88)"/><path class="cls-48" d="M642.57,2062V1881.17h2.65V2062h-2.65" transform="translate(-428.78 -355.88)"/><path class="cls-47" d="M645.22,2062V1881.17h2.36V2062h-2.36" transform="translate(-428.78 -355.88)"/><path class="cls-46" d="M647.58,2062V1881.17h2.08V2062h-2.08" transform="translate(-428.78 -355.88)"/><path class="cls-45" d="M649.66,2062V1881.17h1.82V2062h-1.82" transform="translate(-428.78 -355.88)"/><path class="cls-44" d="M651.48,2062V1881.17h1.64V2062h-1.64" transform="translate(-428.78 -355.88)"/><path class="cls-43" d="M653.12,2062V1881.17h1.44V2062h-1.44" transform="translate(-428.78 -355.88)"/><path class="cls-42" d="M654.56,2062V1881.17h1.29V2062h-1.29" transform="translate(-428.78 -355.88)"/><path class="cls-41" d="M655.85,2062V1881.17H657V2062h-1.15" transform="translate(-428.78 -355.88)"/><path class="cls-40" d="M657,2062V1881.17h1V2062h-1" transform="translate(-428.78 -355.88)"/><path class="cls-39" d="M658,2062V1881.17h.88V2062H658" transform="translate(-428.78 -355.88)"/><path class="cls-38" d="M658.9,2062V1881.17h.76V2062h-.76" transform="translate(-428.78 -355.88)"/><path class="cls-37" d="M659.66,2062V1881.17h.63V2062h-.63" transform="translate(-428.78 -355.88)"/><path class="cls-36" d="M660.29,2062V1881.17h.49V2062h-.49" transform="translate(-428.78 -355.88)"/><path class="cls-35" d="M660.78,2062V1881.17h.34V2062h-.34" transform="translate(-428.78 -355.88)"/><path class="cls-34" d="M661.12,2062V1881.17h.13V2062h-.13" transform="translate(-428.78 -355.88)"/></g></g></g></g></g><g id="Calque_11" data-name="Calque 11"><rect class="cls-67" x="1784.74" y="111.65" width="258.99" height="207.51" rx="12"/><path class="cls-68" d="M1795.17,110.08h238.17a12,12,0,0,1,12,12v23.66a0,0,0,0,1,0,0H1783.17a0,0,0,0,1,0,0V122.08A12,12,0,0,1,1795.17,110.08Z"/><path class="cls-69" d="M1783.17,145.74h262.17a0,0,0,0,1,0,0V308.41a12,12,0,0,1-12,12H1795.17a12,12,0,0,1-12-12V145.74A0,0,0,0,1,1783.17,145.74Z"/><rect class="cls-70" x="1990.23" y="220.55" width="12.23" height="8.11" rx="3.53"/><rect class="cls-4" x="1952.17" y="211.28" width="92.6" height="157.11" rx="18.5"/><path class="cls-70" d="M2455,569.66a16,16,0,0,1,16,16V705.77a16,16,0,0,1-16,16h-55.59a16,16,0,0,1-16-16V585.66a16,16,0,0,1,16-16H2455m0-5h-55.59a21.06,21.06,0,0,0-21,21V705.77a21.06,21.06,0,0,0,21,21H2455a21.06,21.06,0,0,0,21-21V585.66a21.06,21.06,0,0,0-21-21Z" transform="translate(-428.78 -355.88)"/><path class="cls-71" d="M2399.45,724.27a18.52,18.52,0,0,1-18.5-18.5v-8.13h92.59v8.13a18.52,18.52,0,0,1-18.5,18.5Z" transform="translate(-428.78 -355.88)"/><path class="cls-70" d="M2471,700.14v5.63a16,16,0,0,1-16,16h-55.59a16,16,0,0,1-16-16v-5.63H2471m5-5h-97.59v10.63a21.06,21.06,0,0,0,21,21H2455a21.06,21.06,0,0,0,21-21V695.14Z" transform="translate(-428.78 -355.88)"/><path class="cls-71" d="M2381,593.8v-8.14a18.52,18.52,0,0,1,18.5-18.5H2455a18.52,18.52,0,0,1,18.5,18.5v8.14Z" transform="translate(-428.78 -355.88)"/><path class="cls-70" d="M2455,569.66a16,16,0,0,1,16,16v5.64h-87.59v-5.64a16,16,0,0,1,16-16H2455m0-5h-55.59a21,21,0,0,0-21,21V596.3H2476V585.66a21,21,0,0,0-21-21Z" transform="translate(-428.78 -355.88)"/><rect class="cls-72" x="1801.14" y="182.88" width="127.04" height="100.51" rx="1"/><path class="cls-4" d="M2305.68,638.82a3.47,3.47,0,0,1-3-1.75,3.43,3.43,0,0,1,0-3.5l21.2-36.74a3.51,3.51,0,0,1,6.07,0l21.21,36.74a3.5,3.5,0,0,1-3,5.25Z" transform="translate(-428.78 -355.88)"/><path class="cls-70" d="M2326.89,597.58a.94.94,0,0,1,.86.5L2349,634.82a1,1,0,0,1-.87,1.5h-42.41a1,1,0,0,1-.87-1.5L2326,598.08a.94.94,0,0,1,.87-.5m0-5a5.93,5.93,0,0,0-5.2,3l-21.21,36.74a6,6,0,0,0,5.2,9h42.41a6,6,0,0,0,5.2-9l-21.21-36.74a5.93,5.93,0,0,0-5.19-3Z" transform="translate(-428.78 -355.88)"/><path class="cls-4" d="M2240.32,638.82a3.47,3.47,0,0,1-3-1.75,3.43,3.43,0,0,1,0-3.5l33.51-58.05a3.5,3.5,0,0,1,6.06,0l33.51,58.05a3.5,3.5,0,0,1-3,5.25Z" transform="translate(-428.78 -355.88)"/><path class="cls-70" d="M2273.83,576.27a.94.94,0,0,1,.86.5l33.51,58.05a1,1,0,0,1,0,1,.94.94,0,0,1-.86.5h-67a1,1,0,0,1-.87-1.5l33.51-58a.93.93,0,0,1,.87-.51m0-5a6,6,0,0,0-5.2,3l-33.51,58.05a6,6,0,0,0,5.2,9h67a6,6,0,0,0,5.19-9L2279,574.27a5.93,5.93,0,0,0-5.19-3Z" transform="translate(-428.78 -355.88)"/><path class="cls-4" d="M2312.06,577a9.22,9.22,0,1,1,9.21-9.22A9.22,9.22,0,0,1,2312.06,577Z" transform="translate(-428.78 -355.88)"/><path class="cls-70" d="M2312.06,561a6.72,6.72,0,1,1-6.72,6.71,6.72,6.72,0,0,1,6.72-6.71m0-5a11.72,11.72,0,1,0,11.71,11.71A11.71,11.71,0,0,0,2312.06,556Z" transform="translate(-428.78 -355.88)"/><rect class="cls-73" x="1971.49" y="269.74" width="53.94" height="42.68" rx="1"/><path class="cls-4" d="M2433.22,668.57a1.47,1.47,0,0,1-1.29-.75,1.45,1.45,0,0,1,0-1.5l8.23-14.24a1.49,1.49,0,0,1,2.59,0l8.23,14.24a1.45,1.45,0,0,1,0,1.5,1.47,1.47,0,0,1-1.29.75Z" transform="translate(-428.78 -355.88)"/><path class="cls-70" d="M2441.45,652.83l8.22,14.24h-16.45l8.21-14.24h0m0-3a3,3,0,0,0-2.6,1.5l-8.22,14.24a3,3,0,0,0,2.59,4.5h16.45a3,3,0,0,0,2.59-4.5L2444,651.33a3,3,0,0,0-2.59-1.5Z" transform="translate(-428.78 -355.88)"/><path class="cls-4" d="M2405.47,668.57a1.5,1.5,0,0,1-1.3-2.25L2417.62,643a1.5,1.5,0,0,1,2.6,0l13.44,23.29a1.5,1.5,0,0,1-1.3,2.25Z" transform="translate(-428.78 -355.88)"/><path class="cls-70" d="M2418.92,643.78h0l13.44,23.29h-26.89l13.43-23.29h0m0-3a3,3,0,0,0-2.6,1.5l-13.45,23.29a3,3,0,0,0,2.6,4.5h26.89a3,3,0,0,0,2.6-4.5l-13.44-23.29a3,3,0,0,0-2.6-1.5Z" transform="translate(-428.78 -355.88)"/><circle class="cls-4" cx="2006.37" cy="282.05" r="3.47"/><path class="cls-70" d="M2435.15,636a2,2,0,1,1-2,2,2,2,0,0,1,2-2m0-3a5,5,0,1,0,5,5,5,5,0,0,0-5-5Z" transform="translate(-428.78 -355.88)"/><line class="cls-74" x1="1801.69" y1="129.01" x2="1805.46" y2="129.01"/><line class="cls-74" x1="1819.08" y1="129.01" x2="1822.85" y2="129.01"/><line class="cls-74" x1="1836.47" y1="129.01" x2="1840.24" y2="129.01"/><line class="cls-74" x1="1995.83" y1="225.83" x2="2001.1" y2="225.83"/><line class="cls-74" x1="1865.95" y1="129.01" x2="2025.06" y2="129.01"/></g><g id="plante"><path class="cls-75" d="M2300.5,1877.27c-.72-22.16-1.9-44.49-3.28-66.73s-3-44.51-4.92-66.74-4.05-44.44-6.5-66.62-5.22-44.31-8.28-66.42-6.61-44.13-10.48-66.11-8.38-43.83-13.36-65.58l-3.9-16.28c-1.35-5.41-2.82-10.8-4.22-16.2s-3-10.75-4.52-16.11l-2.33-8c-.79-2.67-1.68-5.31-2.52-8-6.73-21.28-14.4-42.31-24-62.49,10.2,19.9,18.48,40.76,25.82,61.89.91,2.65,1.88,5.28,2.75,7.94l2.56,8c1.7,5.33,3.47,10.65,5,16s3.19,10.73,4.69,16.12l4.37,16.22q8.41,32.5,15.24,65.42t12.37,66q5.54,33.14,10.18,66.41t8.38,66.66q3.8,33.38,6.82,66.85c2,22.33,3.82,44.61,5.18,67.1Z" transform="translate(-428.78 -355.88)"/><path class="cls-75" d="M2300.17,1767s-36.9-9.1-85.26-6.56-59.81,11.92-60.45,15.51,47.09,10.58,72.86,9.31S2300.17,1767,2300.17,1767Z" transform="translate(-428.78 -355.88)"/><path class="cls-75" d="M2291.9,1692.58s-36.9-9.1-85.26-6.55-59.81,11.92-60.45,15.5,47.09,10.58,72.86,9.31S2291.9,1692.58,2291.9,1692.58Z" transform="translate(-428.78 -355.88)"/><path class="cls-75" d="M2271.28,1559.6s-24.92-9.11-57.56-6.56-40.37,11.92-40.8,15.5,31.78,10.59,49.18,9.31S2271.28,1559.6,2271.28,1559.6Z" transform="translate(-428.78 -355.88)"/><path class="cls-75" d="M2261.33,1512.51a75.4,75.4,0,0,0-39.94-6.56c-22.66,2.55-28,11.92-28.32,15.51s22.06,10.58,34.13,9.31S2261.33,1512.51,2261.33,1512.51Z" transform="translate(-428.78 -355.88)"/><path class="cls-75" d="M2249.88,1452.06a60.3,60.3,0,0,0-35.35-6.56c-20.06,2.55-24.8,11.93-25.07,15.51s19.53,10.58,30.21,9.31S2249.88,1452.06,2249.88,1452.06Z" transform="translate(-428.78 -355.88)"/><path class="cls-75" d="M2212.15,1353.08a60.29,60.29,0,0,0-27.46-23.22c-18.68-7.72-27.45-1.93-29.45,1.05s11.72,18.87,21.63,23.06S2212.15,1353.08,2212.15,1353.08Z" transform="translate(-428.78 -355.88)"/><path class="cls-75" d="M2212.15,1353.08s-5.3-35.52,0-49.17,17.4-26.39,21.85-26.39,12.09,38.18,0,52.18S2212.15,1353.08,2212.15,1353.08Z" transform="translate(-428.78 -355.88)"/><path class="cls-75" d="M2231.14,1396.86c-.95.07,14.31-38.86,34.67-43.78s46.45-8.75,49-1.11S2305.91,1390.84,2231.14,1396.86Z" transform="translate(-428.78 -355.88)"/><path class="cls-75" d="M2249.88,1452.06s9.57-17.37,26.75-25,27.1-9.54,31.36-6.36S2319.85,1456.71,2249.88,1452.06Z" transform="translate(-428.78 -355.88)"/><path class="cls-75" d="M2261.33,1509.57s14-30.1,42-32.65,42,6.36,38.81,10.82S2310.3,1518.67,2261.33,1509.57Z" transform="translate(-428.78 -355.88)"/><path class="cls-75" d="M2271.28,1556.65s8.95-7.83,30.69-14.19,50.38-16.54,54.84-10.18S2358.82,1565.12,2271.28,1556.65Z" transform="translate(-428.78 -355.88)"/><path class="cls-75" d="M2281,1615.19s21.1-8.46,44.65-15.46,35.63-5.09,45.17,0S2358.51,1637.66,2281,1615.19Z" transform="translate(-428.78 -355.88)"/><path class="cls-75" d="M2296.36,1690.08s24.18-17.82,43.27-25.45,52.81-12.73,63-5.09S2386.08,1707.26,2296.36,1690.08Z" transform="translate(-428.78 -355.88)"/><path class="cls-75" d="M2300.17,1764.09s46.45-26.29,87.81-32,54.09,1.27,57.91,11.45S2371.44,1786.55,2300.17,1764.09Z" transform="translate(-428.78 -355.88)"/><path class="cls-75" d="M2232.07,1393.71s-53.43-10.56-71.88-6.11-21.63,4.46-19.73,14S2195.79,1427.81,2232.07,1393.71Z" transform="translate(-428.78 -355.88)"/><path class="cls-75" d="M2281,1618.14s-34.9-9.51-61.94-6.13-52.49,7.84-52.49,16.75S2247.79,1661,2281,1618.14Z" transform="translate(-428.78 -355.88)"/><path class="cls-76" d="M2374.89,1868.94c1.18-18.47,2.71-36.73,4.42-55s3.63-36.58,5.76-54.83,4.47-36.47,7-54.66,5.44-36.35,8.52-54.45,6.57-36.16,10.31-54.14,8-35.86,12.67-53.63,10-35.36,16-52.69a396.41,396.41,0,0,1,21.33-50.7,395.72,395.72,0,0,0-19.55,51.29q-8.13,26.2-14.17,53t-10.78,53.8q-4.68,27-8.43,54.21t-6.62,54.46q-2.93,27.29-5.16,54.62t-3.87,54.72c-1.07,18.22-2,36.54-2.51,54.68Z" transform="translate(-428.78 -355.88)"/><path class="cls-76" d="M2388.8,1779.12s30.26-7.46,69.91-5.38,49,9.78,49.56,12.72-38.6,8.67-59.73,7.63S2388.8,1779.12,2388.8,1779.12Z" transform="translate(-428.78 -355.88)"/><path class="cls-76" d="M2395.58,1718.08s30.26-7.47,69.91-5.38,49.05,9.77,49.57,12.71-38.61,8.68-59.74,7.64S2395.58,1718.08,2395.58,1718.08Z" transform="translate(-428.78 -355.88)"/><path class="cls-76" d="M2412.49,1609a123.2,123.2,0,0,1,47.19-5.37c26.77,2.08,33.11,9.77,33.46,12.71s-26.06,8.68-40.32,7.63S2412.49,1609,2412.49,1609Z" transform="translate(-428.78 -355.88)"/><path class="cls-76" d="M2420.64,1570.42a61.82,61.82,0,0,1,32.76-5.37c18.58,2.08,23,9.77,23.22,12.71s-18.09,8.68-28,7.64S2420.64,1570.42,2420.64,1570.42Z" transform="translate(-428.78 -355.88)"/><path class="cls-76" d="M2430,1520.86a49.44,49.44,0,0,1,29-5.38c16.45,2.09,20.34,9.78,20.56,12.72s-16,8.67-24.77,7.63S2430,1520.86,2430,1520.86Z" transform="translate(-428.78 -355.88)"/><path class="cls-76" d="M2461,1439.69a49.4,49.4,0,0,1,22.52-19c15.31-6.33,22.5-1.58,24.15.86s-9.61,15.47-17.74,18.91S2461,1439.69,2461,1439.69Z" transform="translate(-428.78 -355.88)"/><path class="cls-76" d="M2461,1439.69s4.35-29.11,0-40.31-14.26-21.64-17.91-21.64-9.92,31.31,0,42.79S2461,1439.69,2461,1439.69Z" transform="translate(-428.78 -355.88)"/><path class="cls-76" d="M2445.4,1475.59c.78.07-11.73-31.86-28.43-35.9s-38.09-7.16-40.17-.9S2384.09,1470.66,2445.4,1475.59Z" transform="translate(-428.78 -355.88)"/><path class="cls-76" d="M2430,1520.86s-7.85-14.25-21.94-20.51-22.21-7.82-25.72-5.22S2372.67,1524.67,2430,1520.86Z" transform="translate(-428.78 -355.88)"/><path class="cls-76" d="M2420.64,1570.42s-11.5-24.68-34.45-26.76-34.44,5.21-31.83,8.87S2380.49,1577.89,2420.64,1570.42Z" transform="translate(-428.78 -355.88)"/><path class="cls-76" d="M2412.49,1609s-7.34-6.42-25.17-11.63-41.31-13.57-45-8.35S2340.71,1616,2412.49,1609Z" transform="translate(-428.78 -355.88)"/><path class="cls-76" d="M2404.53,1657s-17.3-6.94-36.6-12.68-29.22-4.17-37,0S2341,1675.45,2404.53,1657Z" transform="translate(-428.78 -355.88)"/><path class="cls-76" d="M2391.93,1718.44s-19.83-14.61-35.48-20.87-43.31-10.44-51.65-4.17S2318.36,1732.53,2391.93,1718.44Z" transform="translate(-428.78 -355.88)"/><path class="cls-76" d="M2388.8,1779.12s-38.09-21.55-72-26.25-44.35,1.05-47.48,9.39S2330.36,1797.54,2388.8,1779.12Z" transform="translate(-428.78 -355.88)"/><path class="cls-76" d="M2444.64,1473s43.81-8.66,58.94-5,17.74,3.66,16.17,11.48S2474.39,1501,2444.64,1473Z" transform="translate(-428.78 -355.88)"/><path class="cls-76" d="M2404.53,1657s28.62-7.79,50.79-5,43,6.43,43,13.73S2431.75,1692.15,2404.53,1657Z" transform="translate(-428.78 -355.88)"/><g class="cls-28"><g class="cls-28"><g class="cls-77"><g class="cls-28"><path class="cls-30" d="M2397.14,2063.1l36.36-215.31h-19.17L2384,2063.1h13.18" transform="translate(-428.78 -355.88)"/><path class="cls-31" d="M2384,2063.1l30.37-215.31H2408l-28.38,215.31H2384" transform="translate(-428.78 -355.88)"/><path class="cls-32" d="M2379.58,2063.1,2408,1847.79h-5.45l-26.68,215.31h3.75" transform="translate(-428.78 -355.88)"/><path class="cls-33" d="M2375.83,2063.1l26.68-215.31h-5.05l-25.1,215.31h3.47" transform="translate(-428.78 -355.88)"/><path class="cls-34" d="M2372.36,2063.1l25.1-215.31h-4.84L2369,2063.1h3.33" transform="translate(-428.78 -355.88)"/><path class="cls-35" d="M2369,2063.1l23.59-215.31h-4.71l-22.12,215.31H2369" transform="translate(-428.78 -355.88)"/><path class="cls-36" d="M2365.79,2063.1l22.12-215.31h-4.51l-20.71,215.31h3.1" transform="translate(-428.78 -355.88)"/><path class="cls-37" d="M2362.69,2063.1l20.71-215.31h-4.54l-19.29,215.31h3.12" transform="translate(-428.78 -355.88)"/><path class="cls-38" d="M2359.57,2063.1l19.29-215.31h-4.44l-17.91,215.31h3.06" transform="translate(-428.78 -355.88)"/><path class="cls-39" d="M2356.51,2063.1l17.91-215.31H2370l-16.52,215.31h3" transform="translate(-428.78 -355.88)"/><path class="cls-40" d="M2353.48,2063.1,2370,1847.79h-4.41l-15.14,215.31h3" transform="translate(-428.78 -355.88)"/><path class="cls-41" d="M2350.45,2063.1l15.14-215.31h-4.23l-13.82,215.31h2.91" transform="translate(-428.78 -355.88)"/><path class="cls-42" d="M2347.54,2063.1l13.82-215.31h-4.2l-12.51,215.31h2.89" transform="translate(-428.78 -355.88)"/><path class="cls-43" d="M2344.65,2063.1l12.51-215.31h-3.79l-11.32,215.31h2.6" transform="translate(-428.78 -355.88)"/><path class="cls-44" d="M2342.05,2063.1l11.32-215.31h-3.61l-10.2,215.31h2.49" transform="translate(-428.78 -355.88)"/><path class="cls-45" d="M2339.56,2063.1l10.2-215.31h-3.41l-9.14,215.31h2.35" transform="translate(-428.78 -355.88)"/><path class="cls-46" d="M2337.21,2063.1l9.14-215.31h-2.72l-8.28,215.31h1.86" transform="translate(-428.78 -355.88)"/><path class="cls-47" d="M2335.35,2063.1l8.28-215.31h-2.73l-7.43,215.31h1.88" transform="translate(-428.78 -355.88)"/><path class="cls-48" d="M2333.47,2063.1l7.43-215.31h-2.77l-6.56,215.31h1.9" transform="translate(-428.78 -355.88)"/><path class="cls-49" d="M2331.57,2063.1l6.56-215.31h-2l-5.95,215.31h1.36" transform="translate(-428.78 -355.88)"/><path class="cls-50" d="M2330.21,2063.1l5.95-215.31h-1.93l-5.35,215.31h1.33" transform="translate(-428.78 -355.88)"/><path class="cls-51" d="M2328.88,2063.1l5.35-215.31h-1.95l-4.74,215.31h1.34" transform="translate(-428.78 -355.88)"/><path class="cls-52" d="M2327.54,2063.1l4.74-215.31h-2l-4.13,215.31h1.34" transform="translate(-428.78 -355.88)"/><path class="cls-53" d="M2326.2,2063.1l4.13-215.31h-1.89l-3.54,215.31h1.3" transform="translate(-428.78 -355.88)"/><path class="cls-27" d="M2324.9,2063.1l3.54-215.31H2327l-3.09,215.31h1" transform="translate(-428.78 -355.88)"/><path class="cls-54" d="M2323.9,2063.1l3.09-215.31h-1.47l-2.62,215.31h1" transform="translate(-428.78 -355.88)"/><path class="cls-55" d="M2322.9,2063.1l2.62-215.31h-1.46l-2.17,215.31h1" transform="translate(-428.78 -355.88)"/><path class="cls-56" d="M2321.89,2063.1l2.17-215.31h-1.48l-1.71,215.31h1" transform="translate(-428.78 -355.88)"/><path class="cls-57" d="M2320.87,2063.1l1.71-215.31h-1.48l-1.24,215.31h1" transform="translate(-428.78 -355.88)"/><path class="cls-58" d="M2319.86,2063.1l1.24-215.31h-1.48l-.78,215.31h1" transform="translate(-428.78 -355.88)"/><path class="cls-59" d="M2318.84,2063.1l.78-215.31h-1.37l-.36,215.31h1" transform="translate(-428.78 -355.88)"/><path class="cls-60" d="M2317.89,2063.1l.36-215.31h-1.33l.06,215.31h.91" transform="translate(-428.78 -355.88)"/><path class="cls-61" d="M2317,2063.1l-.06-215.31h-1.31l.47,215.31h.9" transform="translate(-428.78 -355.88)"/><path class="cls-62" d="M2316.08,2063.1l-.47-215.31h-1.32l.88,215.31h.91" transform="translate(-428.78 -355.88)"/><path class="cls-63" d="M2315.17,2063.1l-.88-215.31H2313l1.29,215.31h.9" transform="translate(-428.78 -355.88)"/><path class="cls-64" d="M2314.27,2063.1,2313,1847.79h-1.3l1.69,215.31h.9" transform="translate(-428.78 -355.88)"/><path class="cls-78" d="M2313.37,2063.1l-1.69-215.31h-1.31l2.11,215.31h.89" transform="translate(-428.78 -355.88)"/><path class="cls-79" d="M2312.48,2063.1l-2.11-215.31H2309l2.54,215.31h1" transform="translate(-428.78 -355.88)"/><path class="cls-80" d="M2311.52,2063.1,2309,1847.79h-1.54l3,215.31h1.06" transform="translate(-428.78 -355.88)"/><path class="cls-81" d="M2310.46,2063.1l-3-215.31h-1.53l3.5,215.31h1.05" transform="translate(-428.78 -355.88)"/><path class="cls-82" d="M2309.41,2063.1l-3.5-215.31h-1.53l4,215.31h1" transform="translate(-428.78 -355.88)"/><path class="cls-83" d="M2308.36,2063.1l-4-215.31h-1.52l4.45,215.31h1.05" transform="translate(-428.78 -355.88)"/><path class="cls-84" d="M2307.31,2063.1l-4.45-215.31h-1.51l4.92,215.31h1" transform="translate(-428.78 -355.88)"/><path class="cls-85" d="M2306.27,2063.1l-4.92-215.31h-2l5.54,215.31h1.36" transform="translate(-428.78 -355.88)"/><path class="cls-86" d="M2304.91,2063.1l-5.54-215.31h-3.26l6.56,215.31h2.24" transform="translate(-428.78 -355.88)"/><path class="cls-87" d="M2302.67,2063.1l-6.56-215.31h-3.22l7.57,215.31h2.21" transform="translate(-428.78 -355.88)"/><path class="cls-88" d="M2300.46,2063.1l-7.57-215.31h-5.48l9.28,215.31h3.77" transform="translate(-428.78 -355.88)"/><path class="cls-87" d="M2296.69,2063.1l-9.28-215.31h-5.57l11,215.31h3.83" transform="translate(-428.78 -355.88)"/><path class="cls-86" d="M2292.86,2063.1l-11-215.31h-1.9l11.61,215.31h1.31" transform="translate(-428.78 -355.88)"/><path class="cls-85" d="M2291.55,2063.1l-11.61-215.31h-1.89l12.2,215.31h1.3" transform="translate(-428.78 -355.88)"/><path class="cls-84" d="M2290.25,2063.1l-12.2-215.31h-1.88L2289,2063.1h1.29" transform="translate(-428.78 -355.88)"/><path class="cls-83" d="M2289,2063.1l-12.79-215.31h-1.86l13.37,215.31H2289" transform="translate(-428.78 -355.88)"/><path class="cls-82" d="M2287.68,2063.1l-13.37-215.31h-1.6l13.87,215.31h1.1" transform="translate(-428.78 -355.88)"/><path class="cls-81" d="M2286.58,2063.1l-13.87-215.31h-1.46l14.33,215.31h1" transform="translate(-428.78 -355.88)"/><path class="cls-80" d="M2285.58,2063.1l-14.33-215.31h-1.45l14.78,215.31h1" transform="translate(-428.78 -355.88)"/><path class="cls-79" d="M2284.58,2063.1l-14.78-215.31h-1.44l15.23,215.31h1" transform="translate(-428.78 -355.88)"/><path class="cls-78" d="M2283.59,2063.1l-15.23-215.31h-1.43l15.68,215.31h1" transform="translate(-428.78 -355.88)"/><path class="cls-64" d="M2282.61,2063.1l-15.68-215.31h-1.41l16.11,215.31h1" transform="translate(-428.78 -355.88)"/><path class="cls-63" d="M2281.63,2063.1l-16.11-215.31H2264l16.61,215.31h1.07" transform="translate(-428.78 -355.88)"/><path class="cls-62" d="M2280.56,2063.1,2264,1847.79h-1.57l17.1,215.31h1.08" transform="translate(-428.78 -355.88)"/><path class="cls-61" d="M2279.48,2063.1l-17.1-215.31h-1.55l17.58,215.31h1.07" transform="translate(-428.78 -355.88)"/><path class="cls-60" d="M2278.41,2063.1l-17.58-215.31h-1.53l18.06,215.31h1" transform="translate(-428.78 -355.88)"/><path class="cls-59" d="M2277.36,2063.1l-18.06-215.31h-1.53l18.54,215.31h1.05" transform="translate(-428.78 -355.88)"/><path class="cls-58" d="M2276.31,2063.1l-18.54-215.31h-2L2275,2063.1h1.36" transform="translate(-428.78 -355.88)"/><path class="cls-57" d="M2275,2063.1l-19.16-215.31h-2.05l19.8,215.31H2275" transform="translate(-428.78 -355.88)"/><path class="cls-56" d="M2273.54,2063.1l-19.8-215.31h-2l20.42,215.31h1.39" transform="translate(-428.78 -355.88)"/><path class="cls-55" d="M2272.15,2063.1l-20.42-215.31h-2.14l21.09,215.31h1.47" transform="translate(-428.78 -355.88)"/><path class="cls-54" d="M2270.68,2063.1l-21.09-215.31h-3l22,215.31h2" transform="translate(-428.78 -355.88)"/><path class="cls-27" d="M2268.63,2063.1l-22-215.31h-2.91l22.94,215.31h2" transform="translate(-428.78 -355.88)"/><path class="cls-53" d="M2266.63,2063.1l-22.94-215.31H2240l24.1,215.31h2.56" transform="translate(-428.78 -355.88)"/><path class="cls-52" d="M2264.07,2063.1,2240,1847.79H2236l25.33,215.31h2.7" transform="translate(-428.78 -355.88)"/><path class="cls-51" d="M2261.37,2063.1,2236,1847.79h-4.38l26.7,215.31h3" transform="translate(-428.78 -355.88)"/><path class="cls-50" d="M2258.36,2063.1l-26.7-215.31h-4.1l28,215.31h2.82" transform="translate(-428.78 -355.88)"/><path class="cls-49" d="M2255.54,2063.1l-28-215.31h-3.78l29.16,215.31h2.6" transform="translate(-428.78 -355.88)"/><path class="cls-48" d="M2252.94,2063.1l-29.16-215.31h-3.33l30.2,215.31h2.29" transform="translate(-428.78 -355.88)"/><path class="cls-47" d="M2250.65,2063.1l-30.2-215.31h-3l31.12,215.31h2" transform="translate(-428.78 -355.88)"/><path class="cls-46" d="M2248.61,2063.1l-31.12-215.31h-2.67l32,215.31h1.83" transform="translate(-428.78 -355.88)"/><path class="cls-45" d="M2246.78,2063.1l-32-215.31h-2.34l32.69,215.31h1.61" transform="translate(-428.78 -355.88)"/><path class="cls-44" d="M2245.17,2063.1l-32.69-215.31h-2.12l33.35,215.31h1.46" transform="translate(-428.78 -355.88)"/><path class="cls-43" d="M2243.71,2063.1l-33.35-215.31h-1.88l33.94,215.31h1.29" transform="translate(-428.78 -355.88)"/><path class="cls-42" d="M2242.42,2063.1l-33.94-215.31h-1.68l34.46,215.31h1.16" transform="translate(-428.78 -355.88)"/><path class="cls-41" d="M2241.26,2063.1l-34.46-215.31h-1.48l34.93,215.31h1" transform="translate(-428.78 -355.88)"/><path class="cls-40" d="M2240.25,2063.1l-34.93-215.31H2204l35.32,215.31h.89" transform="translate(-428.78 -355.88)"/><path class="cls-39" d="M2239.36,2063.1,2204,1847.79h-1.1l35.67,215.31h.75" transform="translate(-428.78 -355.88)"/><path class="cls-38" d="M2238.61,2063.1l-35.67-215.31h-.9L2238,2063.1h.62" transform="translate(-428.78 -355.88)"/><path class="cls-37" d="M2238,2063.1,2202,1847.79h-.68l36.16,215.31h.47" transform="translate(-428.78 -355.88)"/><path class="cls-36" d="M2237.52,2063.1l-36.16-215.31h-.46l36.31,215.31h.31" transform="translate(-428.78 -355.88)"/><path class="cls-35" d="M2237.21,2063.1l-36.31-215.31h-.18l36.36,215.31h.13" transform="translate(-428.78 -355.88)"/><polyline class="cls-34" points="1808.3 1707.22 1771.94 1491.92 1771.94 1491.92 1808.3 1707.22 1808.3 1707.22"/></g></g></g><g class="cls-28"><g class="cls-89"><g class="cls-28"><path class="cls-30" d="M2317.11,1847.79l36.35,215.31h-8.69l-27.66-215.31" transform="translate(-428.78 -355.88)"/><path class="cls-31" d="M2317.11,1847.79l27.66,215.31h-2.35l-25.31-215.31" transform="translate(-428.78 -355.88)"/><path class="cls-32" d="M2317.11,1847.79l25.31,215.31h-2l-23.27-215.31" transform="translate(-428.78 -355.88)"/><path class="cls-33" d="M2317.11,1847.79l23.27,215.31h-1.89l-21.38-215.31" transform="translate(-428.78 -355.88)"/><path class="cls-34" d="M2317.11,1847.79l21.38,215.31h-1.8l-19.58-215.31" transform="translate(-428.78 -355.88)"/><path class="cls-35" d="M2317.11,1847.79l19.58,215.31H2335l-17.86-215.31" transform="translate(-428.78 -355.88)"/><path class="cls-36" d="M2317.11,1847.79,2335,2063.1h-1.7l-16.16-215.31" transform="translate(-428.78 -355.88)"/><path class="cls-37" d="M2317.11,1847.79l16.16,215.31h-1.69l-14.47-215.31" transform="translate(-428.78 -355.88)"/><path class="cls-38" d="M2317.11,1847.79l14.47,215.31h-1.68l-12.79-215.31" transform="translate(-428.78 -355.88)"/><path class="cls-39" d="M2317.11,1847.79l12.79,215.31h-1.68l-11.11-215.31" transform="translate(-428.78 -355.88)"/><path class="cls-40" d="M2317.11,1847.79l11.11,215.31h-1.69l-9.42-215.31" transform="translate(-428.78 -355.88)"/><path class="cls-41" d="M2317.11,1847.79l9.42,215.31h-1.62l-7.8-215.31" transform="translate(-428.78 -355.88)"/><path class="cls-42" d="M2317.11,1847.79l7.8,215.31h-1.62l-6.18-215.31" transform="translate(-428.78 -355.88)"/><path class="cls-43" d="M2317.11,1847.79l6.18,215.31h-1.51l-4.67-215.31" transform="translate(-428.78 -355.88)"/><path class="cls-44" d="M2317.11,1847.79l4.67,215.31h-1.49l-3.18-215.31" transform="translate(-428.78 -355.88)"/><path class="cls-45" d="M2317.11,1847.79l3.18,215.31h-1.39l-1.79-215.31" transform="translate(-428.78 -355.88)"/><path class="cls-46" d="M2317.11,1847.79l1.79,215.31h-1.4l-.39-215.31" transform="translate(-428.78 -355.88)"/><path class="cls-47" d="M2317.11,1847.79l.39,215.31h-1.35l1-215.31" transform="translate(-428.78 -355.88)"/><path class="cls-48" d="M2317.11,1847.79l-1,215.31h-1.34l2.3-215.31" transform="translate(-428.78 -355.88)"/><path class="cls-49" d="M2317.11,1847.79l-2.3,215.31h-1.5l3.8-215.31" transform="translate(-428.78 -355.88)"/><path class="cls-50" d="M2317.11,1847.79l-3.8,215.31h-1.52l5.32-215.31" transform="translate(-428.78 -355.88)"/><path class="cls-51" d="M2317.11,1847.79l-5.32,215.31h-2.31l7.63-215.31" transform="translate(-428.78 -355.88)"/><path class="cls-52" d="M2317.11,1847.79l-7.63,215.31h-5.69l13.32-215.31" transform="translate(-428.78 -355.88)"/><path class="cls-51" d="M2317.11,1847.79l-13.32,215.31h-2.73l16.05-215.31" transform="translate(-428.78 -355.88)"/><path class="cls-50" d="M2317.11,1847.79l-16.05,215.31h-2.31l18.36-215.31" transform="translate(-428.78 -355.88)"/><path class="cls-49" d="M2317.11,1847.79l-18.36,215.31h-2.31l20.67-215.31" transform="translate(-428.78 -355.88)"/><path class="cls-48" d="M2317.11,1847.79l-20.67,215.31h-2.32l23-215.31" transform="translate(-428.78 -355.88)"/><path class="cls-47" d="M2317.11,1847.79l-23,215.31H2292l25.12-215.31" transform="translate(-428.78 -355.88)"/><path class="cls-46" d="M2317.11,1847.79,2292,2063.1h-1.8l26.92-215.31" transform="translate(-428.78 -355.88)"/><path class="cls-45" d="M2317.11,1847.79l-26.92,215.31h-1.51l28.43-215.31" transform="translate(-428.78 -355.88)"/><path class="cls-44" d="M2317.11,1847.79l-28.43,215.31h-1.29l29.72-215.31" transform="translate(-428.78 -355.88)"/><path class="cls-43" d="M2317.11,1847.79l-29.72,215.31h-1.13l30.85-215.31" transform="translate(-428.78 -355.88)"/><path class="cls-42" d="M2317.11,1847.79l-30.85,215.31h-1l31.83-215.31" transform="translate(-428.78 -355.88)"/><path class="cls-41" d="M2317.11,1847.79l-31.83,215.31h-.86l32.69-215.31" transform="translate(-428.78 -355.88)"/><path class="cls-40" d="M2317.11,1847.79l-32.69,215.31h-.77l33.46-215.31" transform="translate(-428.78 -355.88)"/><path class="cls-39" d="M2317.11,1847.79l-33.46,215.31H2283l34.13-215.31" transform="translate(-428.78 -355.88)"/><path class="cls-38" d="M2317.11,1847.79,2283,2063.1h-.59l34.72-215.31" transform="translate(-428.78 -355.88)"/><path class="cls-37" d="M2317.11,1847.79l-34.72,215.31h-.51l35.23-215.31" transform="translate(-428.78 -355.88)"/><path class="cls-36" d="M2317.11,1847.79l-35.23,215.31h-.42l35.65-215.31" transform="translate(-428.78 -355.88)"/><path class="cls-35" d="M2317.11,1847.79l-35.65,215.31h-.34l36-215.31" transform="translate(-428.78 -355.88)"/><path class="cls-34" d="M2317.11,1847.79l-36,215.31h-.24l36.23-215.31" transform="translate(-428.78 -355.88)"/><path class="cls-33" d="M2317.11,1847.79l-36.23,215.31h-.12l36.35-215.31" transform="translate(-428.78 -355.88)"/><polyline class="cls-32" points="1888.33 1491.92 1851.98 1707.22 1851.98 1707.22 1888.33 1491.92"/></g></g></g><g class="cls-28"><g class="cls-90"><g class="cls-28"><polyline class="cls-33" points="1968.34 1707.22 2004.7 1491.92 2004.7 1491.92 1968.35 1707.22 1968.34 1707.22"/><path class="cls-32" d="M2397.13,2063.1l36.35-215.31h0l-36.36,215.31h0" transform="translate(-428.78 -355.88)"/></g></g></g><g class="cls-28"><g class="cls-91"><g class="cls-28"><path class="cls-30" d="M2317.11,1847.79l-36.35,215.31h6l30.36-215.31" transform="translate(-428.78 -355.88)"/><path class="cls-31" d="M2317.11,1847.79l-30.36,215.31h2l28.37-215.31" transform="translate(-428.78 -355.88)"/><path class="cls-32" d="M2317.11,1847.79l-28.37,215.31h1.7l26.67-215.31" transform="translate(-428.78 -355.88)"/><path class="cls-33" d="M2317.11,1847.79l-26.67,215.31H2292l25.1-215.31" transform="translate(-428.78 -355.88)"/><path class="cls-34" d="M2317.11,1847.79,2292,2063.1h1.52l23.58-215.31" transform="translate(-428.78 -355.88)"/><path class="cls-35" d="M2317.11,1847.79l-23.58,215.31H2295l22.11-215.31" transform="translate(-428.78 -355.88)"/><path class="cls-36" d="M2317.11,1847.79,2295,2063.1h1.41l20.7-215.31" transform="translate(-428.78 -355.88)"/><path class="cls-37" d="M2317.11,1847.79l-20.7,215.31h1.41l19.29-215.31" transform="translate(-428.78 -355.88)"/><path class="cls-38" d="M2317.11,1847.79l-19.29,215.31h1.39l17.9-215.31" transform="translate(-428.78 -355.88)"/><path class="cls-39" d="M2317.11,1847.79l-17.9,215.31h1.38l16.52-215.31" transform="translate(-428.78 -355.88)"/><path class="cls-40" d="M2317.11,1847.79l-16.52,215.31H2302l15.14-215.31" transform="translate(-428.78 -355.88)"/><path class="cls-41" d="M2317.11,1847.79,2302,2063.1h1.32l13.82-215.31" transform="translate(-428.78 -355.88)"/><path class="cls-42" d="M2317.11,1847.79l-13.82,215.31h1.31l12.51-215.31" transform="translate(-428.78 -355.88)"/><path class="cls-43" d="M2317.11,1847.79,2304.6,2063.1h1.19l11.32-215.31" transform="translate(-428.78 -355.88)"/><path class="cls-44" d="M2317.11,1847.79l-11.32,215.31h1.12l10.2-215.31" transform="translate(-428.78 -355.88)"/><path class="cls-45" d="M2317.11,1847.79l-10.2,215.31H2308l9.13-215.31" transform="translate(-428.78 -355.88)"/><path class="cls-46" d="M2317.11,1847.79,2308,2063.1h.85l8.28-215.31" transform="translate(-428.78 -355.88)"/><path class="cls-47" d="M2317.11,1847.79l-8.28,215.31h.85l7.43-215.31" transform="translate(-428.78 -355.88)"/><path class="cls-48" d="M2317.11,1847.79l-7.43,215.31h.87l6.56-215.31" transform="translate(-428.78 -355.88)"/><path class="cls-49" d="M2317.11,1847.79l-6.56,215.31h.61l6-215.31" transform="translate(-428.78 -355.88)"/><path class="cls-50" d="M2317.11,1847.79l-6,215.31h.6l5.35-215.31" transform="translate(-428.78 -355.88)"/><path class="cls-51" d="M2317.11,1847.79l-5.35,215.31h.61l4.74-215.31" transform="translate(-428.78 -355.88)"/><path class="cls-52" d="M2317.11,1847.79l-4.74,215.31h.61l4.13-215.31" transform="translate(-428.78 -355.88)"/><path class="cls-53" d="M2317.11,1847.79,2313,2063.1h.59l3.54-215.31" transform="translate(-428.78 -355.88)"/><path class="cls-27" d="M2317.11,1847.79l-3.54,215.31h.46l3.08-215.31" transform="translate(-428.78 -355.88)"/><path class="cls-54" d="M2317.11,1847.79,2314,2063.1h.45l2.63-215.31" transform="translate(-428.78 -355.88)"/><path class="cls-55" d="M2317.11,1847.79l-2.63,215.31h.46l2.17-215.31" transform="translate(-428.78 -355.88)"/><path class="cls-56" d="M2317.11,1847.79l-2.17,215.31h.46l1.71-215.31" transform="translate(-428.78 -355.88)"/><path class="cls-57" d="M2317.11,1847.79l-1.71,215.31h.46l1.25-215.31" transform="translate(-428.78 -355.88)"/><path class="cls-58" d="M2317.11,1847.79l-1.25,215.31h.47l.78-215.31" transform="translate(-428.78 -355.88)"/><path class="cls-59" d="M2317.11,1847.79l-.78,215.31h.43l.35-215.31" transform="translate(-428.78 -355.88)"/><path class="cls-60" d="M2317.11,1847.79l-.35,215.31h.41l-.06-215.31" transform="translate(-428.78 -355.88)"/><path class="cls-61" d="M2317.11,1847.79l.06,215.31h.41l-.47-215.31" transform="translate(-428.78 -355.88)"/><path class="cls-62" d="M2317.11,1847.79l.47,215.31h.41l-.88-215.31" transform="translate(-428.78 -355.88)"/><path class="cls-63" d="M2317.11,1847.79l.88,215.31h.41l-1.29-215.31" transform="translate(-428.78 -355.88)"/><path class="cls-64" d="M2317.11,1847.79l1.29,215.31h.41l-1.7-215.31" transform="translate(-428.78 -355.88)"/><path class="cls-78" d="M2317.11,1847.79l1.7,215.31h.41l-2.11-215.31" transform="translate(-428.78 -355.88)"/><path class="cls-79" d="M2317.11,1847.79l2.11,215.31h.43l-2.54-215.31" transform="translate(-428.78 -355.88)"/><path class="cls-80" d="M2317.11,1847.79l2.54,215.31h.48l-3-215.31" transform="translate(-428.78 -355.88)"/><path class="cls-81" d="M2317.11,1847.79l3,215.31h.48l-3.5-215.31" transform="translate(-428.78 -355.88)"/><path class="cls-82" d="M2317.11,1847.79l3.5,215.31h.48l-4-215.31" transform="translate(-428.78 -355.88)"/><path class="cls-83" d="M2317.11,1847.79l4,215.31h.47l-4.45-215.31" transform="translate(-428.78 -355.88)"/><path class="cls-84" d="M2317.11,1847.79l4.45,215.31h.48l-4.93-215.31" transform="translate(-428.78 -355.88)"/><path class="cls-85" d="M2317.11,1847.79,2322,2063.1h.61l-5.54-215.31" transform="translate(-428.78 -355.88)"/><path class="cls-86" d="M2317.11,1847.79l5.54,215.31h1l-6.56-215.31" transform="translate(-428.78 -355.88)"/><path class="cls-87" d="M2317.11,1847.79l6.56,215.31h1l-7.57-215.31" transform="translate(-428.78 -355.88)"/><path class="cls-88" d="M2317.11,1847.79l7.57,215.31h1.71l-9.28-215.31" transform="translate(-428.78 -355.88)"/><path class="cls-87" d="M2317.11,1847.79l9.28,215.31h1.74l-11-215.31" transform="translate(-428.78 -355.88)"/><path class="cls-86" d="M2317.11,1847.79l11,215.31h.59l-11.61-215.31" transform="translate(-428.78 -355.88)"/><path class="cls-85" d="M2317.11,1847.79l11.61,215.31h.59l-12.2-215.31" transform="translate(-428.78 -355.88)"/><path class="cls-84" d="M2317.11,1847.79l12.2,215.31h.59l-12.79-215.31" transform="translate(-428.78 -355.88)"/><path class="cls-83" d="M2317.11,1847.79l12.79,215.31h.58l-13.37-215.31" transform="translate(-428.78 -355.88)"/><path class="cls-82" d="M2317.11,1847.79l13.37,215.31h.5l-13.87-215.31" transform="translate(-428.78 -355.88)"/><path class="cls-81" d="M2317.11,1847.79,2331,2063.1h.45l-14.32-215.31" transform="translate(-428.78 -355.88)"/><path class="cls-80" d="M2317.11,1847.79l14.32,215.31h.46l-14.78-215.31" transform="translate(-428.78 -355.88)"/><path class="cls-79" d="M2317.11,1847.79l14.78,215.31h.45l-15.23-215.31" transform="translate(-428.78 -355.88)"/><path class="cls-78" d="M2317.11,1847.79l15.23,215.31h.44l-15.67-215.31" transform="translate(-428.78 -355.88)"/><path class="cls-64" d="M2317.11,1847.79l15.67,215.31h.45l-16.12-215.31" transform="translate(-428.78 -355.88)"/><path class="cls-63" d="M2317.11,1847.79l16.12,215.31h.49l-16.61-215.31" transform="translate(-428.78 -355.88)"/><path class="cls-62" d="M2317.11,1847.79l16.61,215.31h.48l-17.09-215.31" transform="translate(-428.78 -355.88)"/><path class="cls-61" d="M2317.11,1847.79l17.09,215.31h.49l-17.58-215.31" transform="translate(-428.78 -355.88)"/><path class="cls-60" d="M2317.11,1847.79l17.58,215.31h.48l-18.06-215.31" transform="translate(-428.78 -355.88)"/><path class="cls-59" d="M2317.11,1847.79l18.06,215.31h.47l-18.53-215.31" transform="translate(-428.78 -355.88)"/><path class="cls-58" d="M2317.11,1847.79l18.53,215.31h.62l-19.15-215.31" transform="translate(-428.78 -355.88)"/><path class="cls-57" d="M2317.11,1847.79l19.15,215.31h.64l-19.79-215.31" transform="translate(-428.78 -355.88)"/><path class="cls-56" d="M2317.11,1847.79l19.79,215.31h.63l-20.42-215.31" transform="translate(-428.78 -355.88)"/><path class="cls-55" d="M2317.11,1847.79l20.42,215.31h.67l-21.09-215.31" transform="translate(-428.78 -355.88)"/><path class="cls-54" d="M2317.11,1847.79l21.09,215.31h.93l-22-215.31" transform="translate(-428.78 -355.88)"/><path class="cls-27" d="M2317.11,1847.79l22,215.31h.91l-22.93-215.31" transform="translate(-428.78 -355.88)"/><path class="cls-53" d="M2317.11,1847.79,2340,2063.1h1.16l-24.09-215.31" transform="translate(-428.78 -355.88)"/><path class="cls-52" d="M2317.11,1847.79l24.09,215.31h1.23l-25.32-215.31" transform="translate(-428.78 -355.88)"/><path class="cls-51" d="M2317.11,1847.79l25.32,215.31h1.37l-26.69-215.31" transform="translate(-428.78 -355.88)"/><path class="cls-50" d="M2317.11,1847.79l26.69,215.31h1.28l-28-215.31" transform="translate(-428.78 -355.88)"/><path class="cls-49" d="M2317.11,1847.79l28,215.31h1.18l-29.15-215.31" transform="translate(-428.78 -355.88)"/><path class="cls-48" d="M2317.11,1847.79l29.15,215.31h1l-30.19-215.31" transform="translate(-428.78 -355.88)"/><path class="cls-47" d="M2317.11,1847.79l30.19,215.31h.92l-31.11-215.31" transform="translate(-428.78 -355.88)"/><path class="cls-46" d="M2317.11,1847.79l31.11,215.31h.84l-31.95-215.31" transform="translate(-428.78 -355.88)"/><path class="cls-45" d="M2317.11,1847.79l31.95,215.31h.73l-32.68-215.31" transform="translate(-428.78 -355.88)"/><path class="cls-44" d="M2317.11,1847.79l32.68,215.31h.66l-33.34-215.31" transform="translate(-428.78 -355.88)"/><path class="cls-43" d="M2317.11,1847.79l33.34,215.31h.59l-33.93-215.31" transform="translate(-428.78 -355.88)"/><path class="cls-42" d="M2317.11,1847.79,2351,2063.1h.52l-34.45-215.31" transform="translate(-428.78 -355.88)"/><path class="cls-41" d="M2317.11,1847.79l34.45,215.31h.47l-34.92-215.31" transform="translate(-428.78 -355.88)"/><path class="cls-40" d="M2317.11,1847.79,2352,2063.1h.4l-35.32-215.31" transform="translate(-428.78 -355.88)"/><path class="cls-39" d="M2317.11,1847.79l35.32,215.31h.34l-35.66-215.31" transform="translate(-428.78 -355.88)"/><path class="cls-38" d="M2317.11,1847.79l35.66,215.31h.28l-35.94-215.31" transform="translate(-428.78 -355.88)"/><path class="cls-37" d="M2317.11,1847.79l35.94,215.31h.21l-36.15-215.31" transform="translate(-428.78 -355.88)"/><path class="cls-36" d="M2317.11,1847.79l36.15,215.31h.15l-36.3-215.31" transform="translate(-428.78 -355.88)"/><path class="cls-35" d="M2317.11,1847.79l36.3,215.31h.05l-36.35-215.31" transform="translate(-428.78 -355.88)"/></g></g></g><g class="cls-28"><g class="cls-92"><g class="cls-28"><path class="cls-30" d="M2237.08,2063.1l-36.36-215.31h27.84l27.66,215.31h-19.14" transform="translate(-428.78 -355.88)"/><path class="cls-31" d="M2256.22,2063.1l-27.66-215.31h7.53l25.31,215.31h-5.18" transform="translate(-428.78 -355.88)"/><path class="cls-32" d="M2261.4,2063.1l-25.31-215.31h6.53l23.27,215.31h-4.49" transform="translate(-428.78 -355.88)"/><path class="cls-33" d="M2265.89,2063.1l-23.27-215.31h6L2270,2063.1h-4.15" transform="translate(-428.78 -355.88)"/><path class="cls-34" d="M2270,2063.1l-21.39-215.31h5.77L2274,2063.1h-4" transform="translate(-428.78 -355.88)"/><path class="cls-35" d="M2274,2063.1l-19.59-215.31h5.5l17.86,215.31H2274" transform="translate(-428.78 -355.88)"/><path class="cls-36" d="M2277.78,2063.1l-17.86-215.31h5.44l16.17,215.31h-3.75" transform="translate(-428.78 -355.88)"/><path class="cls-37" d="M2281.53,2063.1l-16.17-215.31h5.44l14.47,215.31h-3.74" transform="translate(-428.78 -355.88)"/><path class="cls-38" d="M2285.27,2063.1l-14.47-215.31h5.38L2289,2063.1h-3.7" transform="translate(-428.78 -355.88)"/><path class="cls-39" d="M2289,2063.1l-12.79-215.31h5.37l11.11,215.31H2289" transform="translate(-428.78 -355.88)"/><path class="cls-40" d="M2292.66,2063.1l-11.11-215.31H2287l9.42,215.31h-3.72" transform="translate(-428.78 -355.88)"/><path class="cls-41" d="M2296.38,2063.1,2287,1847.79h5.19l7.8,215.31h-3.57" transform="translate(-428.78 -355.88)"/><path class="cls-42" d="M2300,2063.1l-7.8-215.31h5.17l6.18,215.31H2300" transform="translate(-428.78 -355.88)"/><path class="cls-43" d="M2303.5,2063.1l-6.18-215.31h4.85l4.67,215.31h-3.34" transform="translate(-428.78 -355.88)"/><path class="cls-44" d="M2306.84,2063.1l-4.67-215.31h4.77l3.17,215.31h-3.27" transform="translate(-428.78 -355.88)"/><path class="cls-45" d="M2310.11,2063.1l-3.17-215.31h4.46l1.79,215.31h-3.08" transform="translate(-428.78 -355.88)"/><path class="cls-46" d="M2313.19,2063.1l-1.79-215.31h4.48l.38,215.31h-3.07" transform="translate(-428.78 -355.88)"/><path class="cls-47" d="M2316.26,2063.1l-.38-215.31h4.32l-1,215.31h-3" transform="translate(-428.78 -355.88)"/><path class="cls-48" d="M2319.23,2063.1l1-215.31h4.27l-2.3,215.31h-2.94" transform="translate(-428.78 -355.88)"/><path class="cls-49" d="M2322.17,2063.1l2.3-215.31h4.83l-3.81,215.31h-3.32" transform="translate(-428.78 -355.88)"/><path class="cls-50" d="M2325.49,2063.1l3.81-215.31h4.84l-5.32,215.31h-3.33" transform="translate(-428.78 -355.88)"/><path class="cls-51" d="M2328.82,2063.1l5.32-215.31h7.4l-7.63,215.31h-5.09" transform="translate(-428.78 -355.88)"/><path class="cls-52" d="M2333.91,2063.1l7.63-215.31h18.2l-13.32,215.31h-12.51" transform="translate(-428.78 -355.88)"/><path class="cls-51" d="M2346.42,2063.1l13.32-215.31h8.77l-16.06,215.31h-6" transform="translate(-428.78 -355.88)"/><path class="cls-50" d="M2352.45,2063.1l16.06-215.31h7.35l-18.35,215.31h-5.06" transform="translate(-428.78 -355.88)"/><path class="cls-49" d="M2357.51,2063.1l18.35-215.31h7.43l-20.67,215.31h-5.11" transform="translate(-428.78 -355.88)"/><path class="cls-48" d="M2362.62,2063.1l20.67-215.31h7.43l-23,215.31h-5.11" transform="translate(-428.78 -355.88)"/><path class="cls-47" d="M2367.73,2063.1l23-215.31h6.81l-25.12,215.31h-4.68" transform="translate(-428.78 -355.88)"/><path class="cls-46" d="M2372.41,2063.1l25.12-215.31h5.76l-26.92,215.31h-4" transform="translate(-428.78 -355.88)"/><path class="cls-45" d="M2376.37,2063.1l26.92-215.31h4.83l-28.43,215.31h-3.32" transform="translate(-428.78 -355.88)"/><path class="cls-44" d="M2379.69,2063.1l28.43-215.31h4.15l-29.73,215.31h-2.85" transform="translate(-428.78 -355.88)"/><path class="cls-43" d="M2382.54,2063.1l29.73-215.31h3.61L2385,2063.1h-2.49" transform="translate(-428.78 -355.88)"/><path class="cls-42" d="M2385,2063.1l30.85-215.31H2419l-31.84,215.31H2385" transform="translate(-428.78 -355.88)"/><path class="cls-41" d="M2387.19,2063.1,2419,1847.79h2.75l-32.7,215.31h-1.89" transform="translate(-428.78 -355.88)"/><path class="cls-40" d="M2389.08,2063.1l32.7-215.31h2.45l-33.46,215.31h-1.69" transform="translate(-428.78 -355.88)"/><path class="cls-39" d="M2390.77,2063.1l33.46-215.31h2.16l-34.14,215.31h-1.48" transform="translate(-428.78 -355.88)"/><path class="cls-38" d="M2392.25,2063.1l34.14-215.31h1.88l-34.72,215.31h-1.3" transform="translate(-428.78 -355.88)"/><path class="cls-37" d="M2393.55,2063.1l34.72-215.31h1.63l-35.24,215.31h-1.11" transform="translate(-428.78 -355.88)"/><path class="cls-36" d="M2394.66,2063.1l35.24-215.31h1.36L2395.6,2063.1h-.94" transform="translate(-428.78 -355.88)"/><path class="cls-35" d="M2395.6,2063.1l35.66-215.31h1.09l-36,215.31h-.75" transform="translate(-428.78 -355.88)"/><path class="cls-34" d="M2396.35,2063.1l36-215.31h.76l-36.24,215.31h-.52" transform="translate(-428.78 -355.88)"/><path class="cls-33" d="M2396.87,2063.1l36.24-215.31h.37l-36.35,215.31h-.26" transform="translate(-428.78 -355.88)"/></g></g></g></g></g></svg>