<svg id="Calque_1" data-name="Calque 1" xmlns="http://www.w3.org/2000/svg" xmlns:xlink="http://www.w3.org/1999/xlink" viewBox="0 0 24 24"><defs><style>.cls-1{fill:url(#Dégradé_sans_nom_22);}</style><linearGradient id="Dégradé_sans_nom_22" x1="5.54" y1="0.07" x2="20.46" y2="25.93" gradientUnits="userSpaceOnUse"><stop offset="0" stop-color="#02beb3"/><stop offset="1" stop-color="#1a5576"/></linearGradient></defs><title>bootstrap</title><path class="cls-1" d="M12.7,12.4H10.2v-4h3c1.5,0,2.4.7,2.4,1.9,0,1.4-1,2.1-2.9,2.1m.5,1.4H10.3v4.4h3.1c1.9,0,2.9-.8,2.9-2.2s-1.1-2.2-3.1-2.2M25,5V21a4,4,0,0,1-4,4H5a4,4,0,0,1-4-4V5A4,4,0,0,1,5,1H21a4,4,0,0,1,4,4M17.8,16A3.06,3.06,0,0,0,15,12.9v-.1a2.71,2.71,0,0,0,2.1-2.7c0-1.9-1.4-3.1-3.6-3.1H8.7V19.4h4.8c2.7.1,4.3-1.2,4.3-3.4" transform="translate(-1 -1)"/></svg>