<?xml version="1.0" encoding="utf-8"?>
<!-- Generator: Adobe Illustrator 23.0.3, SVG Export Plug-In . SVG Version: 6.00 Build 0)  -->
<svg version="1.1" id="Calque_1" xmlns="http://www.w3.org/2000/svg" xmlns:xlink="http://www.w3.org/1999/xlink" x="0px" y="0px"
	 viewBox="0 0 26 26.6" style="enable-background:new 0 0 26 26.6;" xml:space="preserve">
<style type="text/css">
	.st0{fill:url(#SVGID_1_);}
</style>
<linearGradient id="SVGID_1_" gradientUnits="userSpaceOnUse" x1="6.9964" y1="26.927" x2="18.0365" y2="5.807" gradientTransform="matrix(1 0 0 -1 0 28.6047)">
	<stop  offset="0" style="stop-color:#02BEB3"/>
	<stop  offset="1" style="stop-color:#1A5576"/>
</linearGradient>
<path class="st0" d="M1.2,1.5h24v24h-24V1.5z M7.5,21.6c0.5,1.1,1.6,2.1,3.4,2.1c2,0,3.4-1.1,3.4-3.4v-7.7H12v7.7
	c0,1.1-0.5,1.4-1.2,1.4c-0.8,0-1.1-0.5-1.5-1.2L7.5,21.6z M15.5,21.3c0.7,1.3,2,2.3,4.1,2.3c2.1,0,3.7-1.1,3.7-3.1
	c0-1.9-1.1-2.7-3-3.5l-0.6-0.2c-1-0.4-1.4-0.7-1.4-1.4c0-0.5,0.4-1,1.1-1c0.6,0,1.1,0.3,1.5,1l1.7-1.2c-0.7-1.3-1.8-1.8-3.2-1.8
	c-2,0-3.3,1.3-3.3,3c0,1.8,1.1,2.7,2.7,3.4l0.6,0.2c1,0.5,1.7,0.7,1.7,1.5c0,0.6-0.6,1.1-1.5,1.1c-1.1,0-1.7-0.6-2.2-1.4L15.5,21.3z
	"/>
</svg>
