<?xml version="1.0" encoding="utf-8"?>
<!-- Generator: Adobe Illustrator 23.0.3, SVG Export Plug-In . SVG Version: 6.00 Build 0)  -->
<svg version="1.1" id="Calque_1" xmlns="http://www.w3.org/2000/svg" xmlns:xlink="http://www.w3.org/1999/xlink" x="0px" y="0px"
	 viewBox="0 0 26 26" style="enable-background:new 0 0 26 26;" xml:space="preserve">
<style type="text/css">
	.st0{fill:url(#SVGID_1_);}
</style>
<linearGradient id="SVGID_1_" gradientUnits="userSpaceOnUse" x1="11.7721" y1="21.0958" x2="14.0037" y2="10.0169" gradientTransform="matrix(1 0 0 -1 0 28)">
	<stop  offset="0" style="stop-color:#02BEB3"/>
	<stop  offset="1" style="stop-color:#1A5576"/>
</linearGradient>
<path class="st0" d="M2,14.4c0-0.4-0.3-0.8-1-0.9v-1c0.8,0,1-0.5,1-0.9c0-0.7-0.1-1.2-0.1-2c0-1.3,0.5-1.7,1.5-1.7h2.8v0.9H4
	C3.5,8.8,3.3,9,3.3,9.6c0,0.6,0.1,1.2,0.1,1.9c0,0.9-0.3,1.3-0.9,1.4V13c0.6,0.1,0.9,0.5,0.9,1.4c0,0.7-0.1,1.3-0.1,1.9
	c0,0.6,0.1,0.8,0.6,0.8h0.2v0.9H3.4c-1.1,0-1.5-0.4-1.5-1.7C1.9,15.6,2,15.1,2,14.4z M4.5,8h1.8v6.6c0,0.4,0.2,0.5,0.3,0.5
	c0.1,0,0.1,0,0.2,0L7,16.3c-0.2,0.1-0.5,0.1-0.9,0.1c-1.2,0-1.6-0.8-1.6-2V8z M9.4,10.2c1.7,0,2.5,1.2,2.5,2.8c0,0.3,0,0.6-0.1,0.7
	H8.3c0.1,0.9,0.8,1.3,1.5,1.3c0.4,0,0.8-0.1,1.3-0.4l0.6,1.1c-0.6,0.4-1.4,0.7-2.1,0.7c-1.7,0-3-1.1-3-3.1C6.6,11.4,8,10.2,9.4,10.2
	z M10.5,12.7c0-0.7-0.3-1.2-1-1.2c-0.6,0-1,0.4-1.1,1.2H10.5z M13,14.5c0.5,0.4,1,0.6,1.5,0.6c0.5,0,0.8-0.2,0.8-0.5
	c0-0.4-0.6-0.6-1.2-0.8c-0.7-0.3-1.5-0.8-1.5-1.7c0-1.1,0.9-1.8,2.3-1.8c0.9,0,1.6,0.4,2.1,0.8L16,12.1c-0.4-0.3-0.8-0.5-1.3-0.5
	c-0.4,0-0.7,0.2-0.7,0.5c0,0.4,0.6,0.5,1.2,0.8c0.8,0.3,1.6,0.7,1.6,1.8c0,1.1-0.8,1.9-2.4,1.9c-0.8,0-1.7-0.3-2.3-0.8L13,14.5z
	 M17.7,14.5c0.5,0.4,1,0.6,1.5,0.6c0.5,0,0.8-0.2,0.8-0.5c0-0.4-0.6-0.6-1.2-0.8c-0.7-0.3-1.5-0.8-1.5-1.7c0-1.1,0.9-1.8,2.3-1.8
	c0.9,0,1.6,0.4,2.1,0.8l-0.8,1.1c-0.4-0.3-0.8-0.5-1.3-0.5c-0.4,0-0.7,0.2-0.7,0.5c0,0.4,0.6,0.5,1.1,0.8c0.8,0.3,1.6,0.7,1.6,1.8
	c0,1.1-0.8,1.9-2.4,1.9c-0.8,0-1.7-0.3-2.3-0.8L17.7,14.5z M22,17.2c0.5,0,0.6-0.2,0.6-0.8c0-0.6-0.1-1.2-0.1-1.9
	c0-0.9,0.3-1.3,0.9-1.4v-0.1c-0.6-0.1-0.9-0.5-0.9-1.4c0-0.7,0.1-1.3,0.1-1.9c0-0.6-0.1-0.8-0.6-0.8h-0.2V7.9h0.8
	c1.1,0,1.5,0.4,1.5,1.7c0,0.8-0.1,1.3-0.1,2c0,0.4,0.3,0.8,1,0.9v1c-0.8,0-1,0.5-1,0.9c0,0.8,0.1,1.2,0.1,2c0,1.3-0.5,1.7-1.5,1.7
	h-0.8v-0.9L22,17.2z"/>
</svg>
