<?xml version="1.0" encoding="utf-8"?>
<!-- Generator: Adobe Illustrator 23.0.3, SVG Export Plug-In . SVG Version: 6.00 Build 0)  -->
<svg version="1.1" id="Calque_1" xmlns="http://www.w3.org/2000/svg" xmlns:xlink="http://www.w3.org/1999/xlink" x="0px" y="0px"
	 viewBox="0 0 26 26" style="enable-background:new 0 0 26 26;" xml:space="preserve">
<style type="text/css">
	.st0{fill:url(#SVGID_1_);}
	.st1{fill:url(#SVGID_2_);}
	.st2{fill:url(#SVGID_3_);}
	.st3{fill:url(#SVGID_4_);}
	.st4{fill:url(#SVGID_5_);}
</style>
<linearGradient id="SVGID_1_" gradientUnits="userSpaceOnUse" x1="12.9459" y1="17.1621" x2="12.9459" y2="12.8822" gradientTransform="matrix(1 0 0 -1 0 28)">
	<stop  offset="0" style="stop-color:#02BEB3"/>
	<stop  offset="1" style="stop-color:#1A5576"/>
</linearGradient>
<path class="st0" d="M12.9,15.1c1.2,0,2.1-1,2.1-2.1c0-1.2-1-2.1-2.1-2.1c-1.2,0-2.1,1-2.1,2.1C10.8,14.2,11.8,15.1,12.9,15.1z"/>
<linearGradient id="SVGID_2_" gradientUnits="userSpaceOnUse" x1="12.9453" y1="19.2865" x2="12.9453" y2="10.7673" gradientTransform="matrix(1 0 0 -1 0 28)">
	<stop  offset="0" style="stop-color:#02BEB3"/>
	<stop  offset="1" style="stop-color:#1A5576"/>
</linearGradient>
<path class="st1" d="M7,17.2l-0.5-0.1C3,16.2,0.9,14.7,0.9,13c0-1.7,2-3.3,5.5-4.1L7,8.7l0.1,0.5c0.4,1.2,0.8,2.4,1.4,3.6L8.6,13
	l-0.1,0.2c-0.6,1.2-1,2.4-1.4,3.6L7,17.2z M6.3,9.9c-2.7,0.8-4.3,1.9-4.3,3c0,1.1,1.6,2.3,4.3,3C6.6,15,7,14,7.4,13
	C7,12,6.6,11,6.3,9.9z M18.9,17.2l-0.1-0.5c-0.4-1.2-0.8-2.4-1.4-3.6L17.3,13l0.1-0.2c0.6-1.2,1-2.3,1.4-3.6l0.1-0.5l0.5,0.1
	c3.5,0.9,5.5,2.4,5.5,4.1c0,1.7-2,3.3-5.5,4.1L18.9,17.2z M18.4,13c0.5,1,0.9,2.1,1.2,3c2.7-0.8,4.3-1.9,4.3-3c0-1.1-1.6-2.3-4.3-3
	C19.3,11,18.9,12,18.4,13z"/>
<linearGradient id="SVGID_3_" gradientUnits="userSpaceOnUse" x1="12.9442" y1="25.6994" x2="12.9442" y2="4.346" gradientTransform="matrix(1 0 0 -1 0 28)">
	<stop  offset="0" style="stop-color:#02BEB3"/>
	<stop  offset="1" style="stop-color:#1A5576"/>
</linearGradient>
<path class="st2" d="M6.3,9.9L6.1,9.5c-1-3.5-0.7-6,0.8-6.9c1.5-0.9,3.9,0.2,6.4,2.7l0.3,0.4L13.3,6c-0.9,0.9-1.7,1.9-2.4,3
	l-0.1,0.2l-0.2,0C9.2,9.3,8,9.5,6.7,9.8L6.3,9.9z M8.2,3.3c-0.3,0-0.5,0.1-0.7,0.2C6.5,4,6.3,6,7,8.7C8,8.5,9.1,8.3,10.2,8.2
	c0.6-0.9,1.3-1.7,2.1-2.5C10.7,4.2,9.2,3.3,8.2,3.3z M17.7,23.7c-1.4,0-3.3-1.1-5.2-3l-0.3-0.3l0.3-0.3c0.9-0.9,1.7-1.9,2.4-3
	l0.1-0.2l0.2,0c1.3-0.1,2.5-0.3,3.8-0.6l0.5-0.1l0.1,0.5c1,3.5,0.7,6-0.8,6.9C18.6,23.6,18.2,23.7,17.7,23.7z M13.6,20.3
	c1.6,1.5,3,2.4,4.1,2.4c0.3,0,0.5-0.1,0.7-0.2c1-0.6,1.2-2.6,0.5-5.3c-1.1,0.2-2.1,0.4-3.2,0.5C15.1,18.6,14.4,19.5,13.6,20.3z"/>
<linearGradient id="SVGID_4_" gradientUnits="userSpaceOnUse" x1="8.417" y1="23.8713" x2="17.6243" y2="5.8883" gradientTransform="matrix(1 0 0 -1 0 28)">
	<stop  offset="0" style="stop-color:#02BEB3"/>
	<stop  offset="1" style="stop-color:#1A5576"/>
</linearGradient>
<path class="st3" d="M19.6,9.9l-0.5-0.1c-1.2-0.3-2.5-0.5-3.8-0.6l-0.2,0L15,9c-0.7-1.1-1.5-2-2.4-3l-0.3-0.3l0.3-0.3
	c2.5-2.6,4.9-3.6,6.4-2.7c1.5,0.9,1.8,3.4,0.8,6.9L19.6,9.9z M15.7,8.2c1.1,0.1,2.2,0.3,3.2,0.5C19.6,6,19.4,4,18.4,3.5
	c-1-0.6-2.8,0.3-4.8,2.2C14.4,6.5,15.1,7.3,15.7,8.2z M8.2,23.7c-0.4,0-0.8-0.1-1.2-0.3c-1.5-0.9-1.8-3.4-0.8-6.9L6.3,16l0.5,0.1
	c1.2,0.3,2.4,0.5,3.8,0.6l0.2,0l0.1,0.2c0.7,1.1,1.5,2,2.4,3l0.3,0.3l-0.3,0.3C11.4,22.6,9.6,23.7,8.2,23.7z M7,17.2
	c-0.7,2.7-0.5,4.7,0.5,5.3c1,0.6,2.8-0.3,4.8-2.2c-0.7-0.8-1.4-1.7-2.1-2.5C9.1,17.6,8,17.5,7,17.2z"/>
<linearGradient id="SVGID_5_" gradientUnits="userSpaceOnUse" x1="12.9446" y1="19.9096" x2="12.9446" y2="10.1451" gradientTransform="matrix(1 0 0 -1 0 28)">
	<stop  offset="0" style="stop-color:#02BEB3"/>
	<stop  offset="1" style="stop-color:#1A5576"/>
</linearGradient>
<path class="st4" d="M12.9,17.9c-0.8,0-1.7,0-2.5-0.1l-0.2,0l-0.1-0.2c-0.5-0.7-0.9-1.4-1.3-2.1c-0.4-0.7-0.8-1.5-1.2-2.2L7.4,13
	l0.1-0.2c0.4-0.8,0.7-1.5,1.2-2.2c0.4-0.7,0.9-1.4,1.3-2.1l0.1-0.2l0.2,0c1.7-0.1,3.4-0.1,5,0l0.2,0l0.1,0.2c1,1.4,1.8,2.8,2.5,4.3
	l0.1,0.2l-0.1,0.2c-0.7,1.5-1.6,3-2.5,4.3l-0.1,0.2l-0.2,0C14.6,17.8,13.8,17.9,12.9,17.9z M10.7,16.8c1.5,0.1,2.9,0.1,4.4,0
	c0.8-1.2,1.6-2.5,2.2-3.8c-0.6-1.3-1.4-2.6-2.2-3.8c-1.5-0.1-2.9-0.1-4.4,0c-0.8,1.2-1.6,2.5-2.2,3.8C9.2,14.3,9.9,15.6,10.7,16.8z"
	/>
</svg>
