<svg id="Calque_1" data-name="Calque 1" xmlns="http://www.w3.org/2000/svg" xmlns:xlink="http://www.w3.org/1999/xlink" viewBox="0 0 24 14.4"><defs><style>.cls-1{fill:url(#Dégradé_sans_nom_14);}</style><linearGradient id="Dégradé_sans_nom_14" x1="9.4" y1="6.76" x2="16.6" y2="19.24" gradientUnits="userSpaceOnUse"><stop offset="0" stop-color="#02beb3"/><stop offset="1" stop-color="#1a5576"/></linearGradient></defs><title>tailwind</title><path class="cls-1" d="M13,5.8q-4.8,0-6,4.8,1.8-2.4,4.2-1.8a5.08,5.08,0,0,1,2.3,1.6A6.89,6.89,0,0,0,19,13q4.8,0,6-4.8-1.8,2.4-4.2,1.8a5.08,5.08,0,0,1-2.3-1.6A6.89,6.89,0,0,0,13,5.8M7,13q-4.8,0-6,4.8Q2.8,15.4,5.2,16a5.08,5.08,0,0,1,2.3,1.6A6.89,6.89,0,0,0,13,20.2q4.8,0,6-4.8-1.8,2.4-4.2,1.8a5.08,5.08,0,0,1-2.3-1.6A6.89,6.89,0,0,0,7,13" transform="translate(-1 -5.8)"/></svg>