<?xml version="1.0" encoding="utf-8"?>
<!-- Generator: Adobe Illustrator 23.0.3, SVG Export Plug-In . SVG Version: 6.00 Build 0)  -->
<svg version="1.1" id="Calque_1" xmlns="http://www.w3.org/2000/svg" xmlns:xlink="http://www.w3.org/1999/xlink" x="0px" y="0px"
	 viewBox="0 0 26 26" style="enable-background:new 0 0 26 26;" xml:space="preserve">
<style type="text/css">
	.st0{fill:url(#SVGID_1_);}
</style>
<g>
	<g>
		
			<linearGradient id="SVGID_1_" gradientUnits="userSpaceOnUse" x1="7.5946" y1="26.6475" x2="16.7146" y2="6.8475" gradientTransform="matrix(1 0 0 -1 0 28)">
			<stop  offset="0" style="stop-color:#02BEB3"/>
			<stop  offset="1" style="stop-color:#1A5576"/>
		</linearGradient>
		<path class="st0" d="M1,1.4v23.4h24V1.4H1z M2,2.4h22v21.4H2V2.4z M9.3,14.7l-0.8,3c0,0.1,0,0.1-0.1,0.1H6.9c-0.1,0-0.1,0-0.1-0.1
			l2.8-9.9c0.1-0.2,0.1-0.3,0.1-0.8c0-0.1,0-0.1,0.1-0.1h2.1c0.1,0,0.1,0,0.1,0.1l3.2,10.8c0,0.1,0,0.1-0.1,0.1h-1.6
			c-0.1,0-0.1,0-0.1-0.1l-0.8-3L9.3,14.7L9.3,14.7z M12.1,13c-0.3-1.1-0.9-3.5-1.2-4.7h0c-0.2,1.2-0.7,3.1-1.2,4.7H12.1z M16.6,7.5
			c0-0.6,0.4-1,1-1c0.6,0,1,0.4,1,1c0,0.7-0.4,1-1,1C17,8.5,16.6,8.1,16.6,7.5L16.6,7.5z M16.7,9.8c0-0.1,0-0.1,0.1-0.1h1.6
			c0.1,0,0.1,0,0.1,0.1v7.9c0,0.1,0,0.1-0.1,0.1h-1.5c-0.1,0-0.1,0-0.1-0.1L16.7,9.8L16.7,9.8z"/>
	</g>
</g>
</svg>
