<?xml version="1.0" encoding="utf-8"?>
<!-- Generator: Adobe Illustrator 23.0.3, SVG Export Plug-In . SVG Version: 6.00 Build 0)  -->
<svg version="1.1" id="Calque_1" xmlns="http://www.w3.org/2000/svg" xmlns:xlink="http://www.w3.org/1999/xlink" x="0px" y="0px"
	 viewBox="0 0 26 26" style="enable-background:new 0 0 26 26;" xml:space="preserve">
<style type="text/css">
	.st0{fill:none;stroke:url(#SVGID_1_);stroke-width:1.1813;}
	.st1{fill:none;stroke:url(#SVGID_2_);stroke-width:0.886;}
	.st2{fill:none;stroke:url(#SVGID_3_);stroke-width:0.886;}
	.st3{fill:none;stroke:url(#SVGID_4_);stroke-width:0.886;}
	.st4{fill:none;stroke:url(#SVGID_5_);stroke-width:0.886;}
</style>
<linearGradient id="SVGID_1_" gradientUnits="userSpaceOnUse" x1="5.3257" y1="27.3263" x2="18.1681" y2="6.6776" gradientTransform="matrix(1 0 0 -1 0 28)">
	<stop  offset="0" style="stop-color:#02BEB3"/>
	<stop  offset="1" style="stop-color:#1A5576"/>
</linearGradient>
<rect x="1" y="1" class="st0" width="24" height="24"/>
<linearGradient id="SVGID_2_" gradientUnits="userSpaceOnUse" x1="9.9857" y1="24.0178" x2="9.9857" y2="18.0021" gradientTransform="matrix(1 0 0 -1 0 28)">
	<stop  offset="0" style="stop-color:#02BEB3"/>
	<stop  offset="1" style="stop-color:#1A5576"/>
</linearGradient>
<path class="st1" d="M13,4h-3C9.2,4,8.4,4.3,7.9,4.9C7.3,5.4,7,6.2,7,7c0,0.8,0.3,1.6,0.9,2.1C8.4,9.7,9.2,10,10,10h3V4z"/>
<linearGradient id="SVGID_3_" gradientUnits="userSpaceOnUse" x1="9.9857" y1="18.003" x2="9.9857" y2="11.9872" gradientTransform="matrix(1 0 0 -1 0 28)">
	<stop  offset="0" style="stop-color:#02BEB3"/>
	<stop  offset="1" style="stop-color:#1A5576"/>
</linearGradient>
<path class="st2" d="M13,10h-3c-0.8,0-1.6,0.3-2.1,0.9S7,12.2,7,13s0.3,1.6,0.9,2.1C8.4,15.7,9.2,16,10,16h3V10z"/>
<linearGradient id="SVGID_4_" gradientUnits="userSpaceOnUse" x1="12.9939" y1="18.0025" x2="12.9939" y2="5.9723" gradientTransform="matrix(1 0 0 -1 0 28)">
	<stop  offset="0" style="stop-color:#02BEB3"/>
	<stop  offset="1" style="stop-color:#1A5576"/>
</linearGradient>
<path class="st3" d="M19,13c0,0.8-0.3,1.6-0.9,2.1C17.6,15.7,16.8,16,16,16c-0.8,0-1.6-0.3-2.1-0.9C13.3,14.6,13,13.8,13,13
	c0-0.8,0.3-1.6,0.9-2.1c0.6-0.6,1.3-0.9,2.1-0.9c0.8,0,1.6,0.3,2.1,0.9C18.7,11.4,19,12.2,19,13z M10,16h3v3c0,0.6-0.2,1.2-0.5,1.7
	c-0.3,0.5-0.8,0.9-1.3,1.1C10.6,22,10,22.1,9.4,22c-0.6-0.1-1.1-0.4-1.5-0.8c-0.4-0.4-0.7-1-0.8-1.5C6.9,19,7,18.4,7.2,17.9
	s0.6-1,1.1-1.3C8.8,16.2,9.4,16,10,16z"/>
<linearGradient id="SVGID_5_" gradientUnits="userSpaceOnUse" x1="16.001" y1="24.0178" x2="16.001" y2="18.0021" gradientTransform="matrix(1 0 0 -1 0 28)">
	<stop  offset="0" style="stop-color:#02BEB3"/>
	<stop  offset="1" style="stop-color:#1A5576"/>
</linearGradient>
<path class="st4" d="M13,4h3c0.8,0,1.6,0.3,2.1,0.9C18.7,5.4,19,6.2,19,7c0,0.8-0.3,1.6-0.9,2.1C17.6,9.7,16.8,10,16,10h-3V4z"/>
</svg>
