<?xml version="1.0" encoding="utf-8"?>
<!-- Generator: Adobe Illustrator 23.0.3, SVG Export Plug-In . SVG Version: 6.00 Build 0)  -->
<svg version="1.1" id="Calque_1" xmlns="http://www.w3.org/2000/svg" xmlns:xlink="http://www.w3.org/1999/xlink" x="0px" y="0px"
	 viewBox="0 0 26 26" style="enable-background:new 0 0 26 26;" xml:space="preserve">
<style type="text/css">
	.st0{fill:url(#SVGID_1_);}
</style>
<g>
	<g>
		
			<linearGradient id="SVGID_1_" gradientUnits="userSpaceOnUse" x1="6.0844" y1="25.6162" x2="17.8444" y2="7.6162" gradientTransform="matrix(1 0 0 -1 0 28)">
			<stop  offset="0" style="stop-color:#02BEB3"/>
			<stop  offset="1" style="stop-color:#1A5576"/>
		</linearGradient>
		<path class="st0" d="M1.2,1.5v23.4h24V1.5H1.2z M2.2,2.5h22v21.4h-22V2.5z M7,7c0-0.1,0.1-0.1,0.2-0.1c0.9,0,1.7-0.1,2.6-0.1
			c2.8,0,3.9,1.5,3.9,3.5c0,2.5-1.8,3.6-4.1,3.6c-0.4,0-0.5,0-0.8,0v3.8c0,0.1,0,0.1-0.1,0.1H7.1c-0.1,0-0.1,0-0.1-0.1V7z M8.7,12.3
			c0.2,0,0.4,0,0.8,0c1.2,0,2.3-0.4,2.3-2c0-1.3-0.8-1.9-2.1-1.9c-0.4,0-0.8,0-1,0V12.3z M17.3,11.1c-0.8,0-1.1,0.4-1.1,0.7
			c0,0.4,0.2,0.6,1.2,1.2c1.6,0.8,2.1,1.5,2.1,2.6c0,1.6-1.2,2.5-2.9,2.5c-0.9,0-1.6-0.2-2.1-0.4c-0.1,0-0.1-0.1-0.1-0.2v-1.5
			c0-0.1,0-0.1,0.1-0.1c0.6,0.4,1.3,0.6,2,0.6c0.8,0,1.1-0.3,1.1-0.8c0-0.4-0.2-0.7-1.2-1.2c-1.4-0.7-2-1.4-2-2.5
			c0-1.3,1-2.4,2.8-2.4c0.9,0,1.5,0.1,1.8,0.3c0.1,0.1,0.1,0.1,0.1,0.2v1.4c0,0.1-0.1,0.1-0.1,0.1C18.6,11.3,18,11.1,17.3,11.1
			L17.3,11.1z"/>
	</g>
</g>
</svg>
