<?xml version="1.0" encoding="utf-8"?>
<!-- Generator: Adobe Illustrator 23.0.3, SVG Export Plug-In . SVG Version: 6.00 Build 0)  -->
<svg version="1.1" id="Calque_1" xmlns="http://www.w3.org/2000/svg" xmlns:xlink="http://www.w3.org/1999/xlink" x="0px" y="0px"
	 viewBox="0 0 26 26" style="enable-background:new 0 0 26 26;" xml:space="preserve">
<title>icon_accessibility</title>
<path d="M13,5.8c-0.6,0-1.3-0.2-1.7-0.7c-0.5-0.4-0.7-1.1-0.7-1.7c0-0.6,0.2-1.3,0.7-1.7C11.7,1.2,12.4,1,13,1
	c0.6,0,1.3,0.2,1.7,0.7c0.5,0.4,0.7,1.1,0.7,1.7c0,0.6-0.2,1.3-0.7,1.7C14.3,5.6,13.6,5.8,13,5.8 M9.4,25V9.4H2.2V7h21.6v2.4h-7.2
	V25h-2.4v-7.2h-2.4V25H9.4z"/>
</svg>
