<svg xmlns="http://www.w3.org/2000/svg" xml:space="preserve" viewBox="0 0 26 26"><path d="M13 15.1c1.2 0 2.1-1 2.1-2.1 0-1.2-1-2.1-2.1-2.1s-2.1 1-2.1 2.1c0 1.2.9 2.1 2.1 2.1M7 17.2l-.5-.1C3 16.2 1 14.7 1 13s2-3.3 5.5-4.1l.5-.2.1.5c.4 1.2.8 2.4 1.4 3.6l.1.2-.1.2c-.6 1.2-1 2.4-1.4 3.6zm-.7-7.3C3.6 10.7 2 11.8 2 13c0 1.1 1.6 2.3 4.3 3q.45-1.5 1.2-3c-.5-1-.9-2-1.2-3.1M19 17.2l-.1-.5c-.4-1.2-.8-2.4-1.4-3.6l-.1-.1.1-.2c.6-1.2 1-2.3 1.4-3.6l.1-.5.5.1C23 9.7 25 11.2 25 13c0 1.7-2 3.3-5.5 4.1zm-.5-4.2c.5 1 .9 2.1 1.2 3 2.7-.8 4.3-1.9 4.3-3s-1.6-2.3-4.3-3q-.45 1.5-1.2 3"/><path d="m6.3 9.9-.1-.4c-1-3.5-.7-6 .8-6.9s3.9.2 6.4 2.7l.3.4-.3.3Q12.05 7.35 11 9l-.1.2h-.2q-2.1.15-3.9.6zm1.9-6.6c-.3 0-.5.1-.7.2C6.5 4 6.3 6 7 8.7c1.1-.2 2.1-.4 3.2-.5.6-.9 1.3-1.7 2.1-2.5-1.6-1.5-3-2.4-4.1-2.4m9.6 20.4c-1.4 0-3.3-1.1-5.2-3l-.3-.3.3-.3q1.35-1.35 2.4-3l.1-.2h.2c1.3-.1 2.5-.3 3.8-.6l.5-.1.1.5c1 3.5.7 6-.8 6.9-.3 0-.7.1-1.1.1m-4.1-3.4c1.6 1.5 3 2.4 4.1 2.4.3 0 .5-.1.7-.2 1-.6 1.2-2.6.5-5.3-1.1.2-2.1.4-3.2.5-.7.9-1.4 1.8-2.1 2.6"/><path d="m19.7 9.9-.5-.1c-1.2-.3-2.5-.5-3.8-.6h-.2l-.1-.2c-.7-1.1-1.5-2-2.4-3l-.3-.3.3-.3c2.5-2.6 4.9-3.6 6.4-2.7s1.8 3.4.8 6.9zm-4-1.7c1.2.1 2.3.3 3.3.5.7-2.7.5-4.7-.5-5.2-1-.6-2.8.3-4.8 2.2.7.8 1.4 1.6 2 2.5M8.2 23.7q-.6 0-1.2-.3c-1.5-.9-1.8-3.4-.8-6.9l.1-.5.5.1c1.2.3 2.4.5 3.8.6h.2l.1.2c.7 1.1 1.5 2 2.4 3l.3.3-.3.3c-1.8 2.1-3.7 3.2-5.1 3.2M7 17.2c-.7 2.7-.5 4.7.5 5.3s2.8-.3 4.8-2.2c-.7-.8-1.4-1.7-2.1-2.5-1-.2-2.1-.3-3.2-.6"/><path d="M13 17.9c-.8 0-1.7 0-2.5-.1h-.2l-.1-.2c-.5-.7-.9-1.4-1.3-2.1-.6-.8-.9-1.5-1.3-2.3l-.1-.2.1-.2c.4-.8.7-1.5 1.2-2.3.4-.7.9-1.4 1.3-2.1l.1-.2h.2c1.7-.1 3.4-.1 5 0h.2l.1.2c1 1.4 1.8 2.8 2.5 4.3l.1.2-.1.2c-.7 1.5-1.6 3-2.5 4.3l-.1.2h-.2c-.7.2-1.6.3-2.4.3m-2.2-1.1c1.5.1 2.9.1 4.4 0 .8-1.2 1.6-2.5 2.2-3.8-.6-1.3-1.4-2.6-2.2-3.8-1.5-.1-2.9-.1-4.4 0-.8 1.2-1.6 2.5-2.2 3.8.6 1.3 1.4 2.6 2.2 3.8"/></svg>