<svg xmlns="http://www.w3.org/2000/svg" xml:space="preserve" viewBox="0 0 26 26"><path d="M24.1 12c-.1-.2-.2-.5-.2-.8v-2c0-.6-.2-1.2-.8-1.5-.5-.3-1.1-.3-1.7-.3v1.1h.2c.8 0 1 .3 1 1v1.7c0 .7.1 1.3.7 1.8v.1c-.3.2-.6.5-.6.9-.1.3-.1.7-.1 1v1.8c0 .5-.2.7-.7.8-.2 0-.4.1-.5.1v1.1c.4 0 .6 0 .8-.1 1-.1 1.5-.6 1.6-1.6v-.9c0-.6 0-1.1.1-1.7s.5-.9 1-.9v-1.1c-.3 0-.6-.2-.8-.5M6.2 14.3c0-2.2-.1-4.4-.1-6.6v-.4H4.3c-.2 0-.5 0-.7.1-.9.1-1.3.6-1.5 1.5v2.4c0 .7-.3 1.2-1 1.2H1v1c.8.1 1 .4 1.1 1.1v2.2c0 .6.2 1.1.7 1.4s1.2.3 1.6.3v-1.1h-.1c-.8-.1-1-.3-1-1.1v-1.6c0-.7-.1-1.3-.7-1.8v-.1c.4-.3.6-.7.7-1.2V9.1c0-.4.3-.7.6-.8s.5-.1 1-.1v.4c0 2-.1 3.9-.1 5.9 0 .7.1 1.3.8 1.6.4.2.8.2 1.3.3.1-.4.1-.8.2-1.2-.8 0-.9-.1-.9-.9m5.1-3.8c-1.4-.7-3.1-.1-3.7 1.3-.6 1.1-.5 2.2-.1 3.2.2.6.7 1 1.2 1.3 1.1.5 2.3.4 3.4 0 .1 0 .1-.1.1-.2 0-.3-.1-.6-.2-1-.3.1-.5.1-.7.2-.6.1-1.2.1-1.8-.1s-1-.9-.9-1.5h4c0-.6 0-1.4-.2-2-.2-.5-.6-.9-1.1-1.2m0 2.3H8.7c0-.8.6-1.4 1.4-1.4.7 0 1.2.6 1.2 1.4M22 15.1c.1-1-.2-1.5-1.1-1.9-.3-.1-.6-.3-.9-.4-.2-.1-.5-.2-.7-.3q-.3-.15-.3-.6c0-.2.2-.4.4-.4.3-.1.6-.1.8-.1.4 0 .8.1 1.2.2l.3-1.1c-.5-.1-1-.2-1.6-.2s-1.1 0-1.6.3c-1.1.6-1.1 2.3-.1 2.9.3.2.6.3.9.5s.7.3 1 .5c.2.1.3.4.3.7-.1.3-.3.4-.5.4-.4 0-.7.1-1.1 0s-.8-.2-1.3-.3l-.2 1.1c1 .4 2 .4 3 .2q1.35-.45 1.5-1.5m-5.5-1.8c-.4-.2-.8-.3-1.2-.5-.2-.1-.5-.2-.7-.4-.4-.3-.3-.9.1-1 .3-.1.6-.1.9-.1.4 0 .8.1 1.2.2l.2-1.1c-.2-.1-.4-.1-.6-.2-.8-.2-1.5-.2-2.3 0-.6.2-1.1.6-1.2 1.4q-.15 1.2.9 1.8c.3.2.6.3.9.4s.6.3.9.4c.2.1.3.4.2.6-.1.3-.2.4-.5.4-.4 0-.7.1-1.1 0-.4 0-.8-.2-1.3-.3-.1.3-.1.6-.2.9 0 .1.1.2.1.2 1 .4 2.1.4 3.1.1.6-.2 1.1-.6 1.1-1.3.5-.4.3-1.1-.5-1.5" style="fill-rule:evenodd;clip-rule:evenodd"/></svg>