<?xml version="1.0" encoding="utf-8"?>
<!-- Generator: Adobe Illustrator 23.0.3, SVG Export Plug-In . SVG Version: 6.00 Build 0)  -->
<svg version="1.1" id="Calque_1" xmlns="http://www.w3.org/2000/svg" xmlns:xlink="http://www.w3.org/1999/xlink" x="0px" y="0px"
	 viewBox="0 0 26 26" style="enable-background:new 0 0 26 26;" xml:space="preserve">
<path d="M8.7,1v8h7.8C16.7,9,17,9.3,17,9.5v7.8h8V1.5c0-0.1-0.1-0.3-0.1-0.4c-0.2,0-0.3-0.1-0.4-0.1H8.7z M8.2,1.5L1.1,8.6
	C1,8.6,1,8.7,1,8.7v0.1C1,8.9,1.1,9,1.1,9h7L8.2,1.5L8.2,1.5z M8.7,9.5v7.3c0,0.3,0.2,0.5,0.5,0.5h7.3V10c0-0.3-0.2-0.5-0.5-0.5H8.7
	z M17,17.8v6.9c0,0.2,0.3,0.3,0.4,0.2l7.1-7.1H17z"/>
</svg>
