<svg xmlns="http://www.w3.org/2000/svg" xml:space="preserve" viewBox="0 0 26 26"><path d="M13 1c-1.6 0-3.1.3-4.6.9-1.4.6-2.8 1.5-3.9 2.6C2.3 6.8 1 9.8 1 13s1.3 6.2 3.5 8.5c1.1 1.1 2.4 2 3.9 2.6s3 .9 4.6.9c3.2 0 6.2-1.3 8.5-3.5S25 16.2 25 13c0-1.6-.3-3.1-.9-4.6s-1.5-2.8-2.6-3.9-2.4-2-3.9-2.6-3-.9-4.6-.9m5.2 4.4c1.2 0 2.1.5 2.2 1.4 0 .4-.2 1.1-.9 1.1-.6 0-.9-.3-1-.8 0-.2.3-.8.3-.9 0-.3-.5-.3-.6-.3-1.8.1-2.3 2.5-2.7 4.5l-.2 1c1 .2 1.8 0 2.2-.3.6-.4-.2-.8-.1-1.2s.5-.6.8-.7c.4 0 .8.4.7.9 0 .8-1 1.8-3 1.8h-.7c-.7 3.7-1.2 5.9-2.8 7.8-1.4 1.7-2.8 1.9-3.5 1.9-1.2 0-2-.6-2-1.4s.7-1.3 1.2-1.3c.6 0 1.1.4 1.1 1 0 .4-.2.6-.4.7-.1.1-.3.2-.3.4 0 .1.1.3.3.3.5 0 .8-.3 1.1-.4 1.2-1 1.6-2.7 2.2-5.7.3-1.7.5-2.9.9-4-.8-.6-1.3-1.4-2.4-1.7-.8-.2-1.2 0-1.5.4-.4.5-.3 1.1.1 1.5 1.4 1.5 1.8 2.2 1.6 3.1-.2 1.5-2 2.6-4 1.9-1.7-.5-2.1-1.8-1.9-2.4s.7-.7 1.1-.6c.5.2.7.8.6 1.2 0 0-.3.5-.3.6-.1.4.4.6.7.7.8.2 1.5-.2 1.7-.8s-.2-1-.3-1.1c-1.1-1.2-1.8-2.2-1.5-3.4.1-.4.4-.9.9-1.2.9-.7 1.9-.8 2.8-.5 1.2.3 1.8 1.1 2.5 1.7.4-1.2 1-2.4 1.9-3.5 1-.9 2-1.6 3.2-1.7"/></svg>