<svg xmlns="http://www.w3.org/2000/svg" xmlns:xlink="http://www.w3.org/1999/xlink" xml:space="preserve" viewBox="0 0 26 26"><defs><path id="a" d="M1 1h24v24H1z"/></defs><clipPath id="b"><use xlink:href="#a" style="overflow:visible"/></clipPath><path d="M8.8 7.6C8.8 6.5 8.1 6 7 6H5.4v3.1h1.7c1.1 0 1.7-.7 1.7-1.5M1 1v24h24V1zm2.2 3.1h4.1c2.4 0 3.8 1.4 3.8 3.4v.1c0 2.3-1.8 3.5-4.1 3.5H5.3v3H3.2zM12.3 22h-9v-1.5h9zm7.2-10.8c0 2-1.5 3.1-3.7 3.1-1.5-.1-3-.6-4.2-1.7l1.3-1.6c.9.7 1.8 1.2 3 1.2.9 0 1.4-.3 1.4-.9v-.1c0-.6-.3-.8-2-1.3C13.3 9.6 12 9 12 7v-.1c0-1.8 1.4-3 3.5-3 1.4 0 2.7.4 3.7 1.3L18 6.9c-.9-.6-1.8-1-2.6-1s-1.3.4-1.3.9v.1c0 .7.4.9 2.2 1.3 2 .5 3.2 1.2 3.2 3" style="clip-path:url(#b)"/></svg>