<svg xmlns="http://www.w3.org/2000/svg" xml:space="preserve" style="enable-background:new 0 0 26 26" viewBox="0 0 26 26"><defs><filter id="a" width="24" height="24" x="1" y="1" filterUnits="userSpaceOnUse"><feColorMatrix values="1 0 0 0 0 0 1 0 0 0 0 0 1 0 0 0 0 0 1 0"/></filter></defs><mask id="b" width="24" height="24" x="1" y="1" maskUnits="userSpaceOnUse"><path d="M1 1h24v24H1z" style="fill:#fff;filter:url(#a)"/></mask><g style="mask:url(#b)"><path d="M1.2 9.4s-.6-.4.1-1L3 6.9s.5-.5 1-.1l15 11.6v5.5s0 .9-1.1.8z"/><path d="m5.1 12.9-3.9 3.6s-.4.3 0 .8L3 19s.4.5 1.1-.1l4.1-3.2zm6.8.1L19 7.5V2s-.3-1.2-1.3-.6l-9.5 8.7z"/><path d="M17.9 24.7c.4.4.9.3.9.3l5.6-2.8c.7-.5.6-1.1.6-1.1V4.6c0-.7-.7-1-.7-1l-4.8-2.3c-1.1-.7-1.7.1-1.7.1s.8-.7 1.2.6v21.9c0 .1 0 .3-.1.4-.1.2-.4.4-1 .4"/></g></svg>