<?xml version="1.0" encoding="utf-8"?>
<!-- Generator: Adobe Illustrator 23.0.3, SVG Export Plug-In . SVG Version: 6.00 Build 0)  -->
<svg version="1.1" id="Calque_1" xmlns="http://www.w3.org/2000/svg" xmlns:xlink="http://www.w3.org/1999/xlink" x="0px" y="0px"
	 viewBox="0 0 24 24" style="enable-background:new 0 0 24 24;" xml:space="preserve">
<style type="text/css">
	.st0{fill-rule:evenodd;clip-rule:evenodd;}
</style>
<path class="st0" d="M8.5,22.5C8.2,22.8,7.8,23,7.3,23c-0.4,0-0.8-0.2-1.2-0.5c-0.6-0.6-0.6-1.7,0-2.3l8.2-8.2L6.2,3.8
	C6,3.7,5.9,3.5,5.8,3.3C5.7,3.1,5.7,2.9,5.7,2.7c0-0.2,0-0.4,0.1-0.7C5.9,1.8,6,1.6,6.1,1.5c0.2-0.2,0.3-0.3,0.5-0.4
	c0.4-0.2,0.9-0.2,1.3,0c0.2,0.1,0.4,0.2,0.5,0.4l9.3,9.4c0.6,0.6,0.7,1.7,0,2.3c0,0,0,0,0,0L8.5,22.5z"/>
</svg>
