<?xml version="1.0" encoding="utf-8"?>
<!-- Generator: Adobe Illustrator 23.0.3, SVG Export Plug-In . SVG Version: 6.00 Build 0)  -->
<svg version="1.1" id="Calque_1" xmlns="http://www.w3.org/2000/svg" xmlns:xlink="http://www.w3.org/1999/xlink" x="0px" y="0px"
	 viewBox="0 0 24 24" style="enable-background:new 0 0 24 24;" xml:space="preserve">
<style type="text/css">
	.st0{fill-rule:evenodd;clip-rule:evenodd;}
</style>
<path class="st0" d="M5.9,13.2c-0.3-0.3-0.5-0.7-0.5-1.2c0-0.4,0.2-0.9,0.5-1.2l9.3-9.3c0.2-0.2,0.3-0.3,0.5-0.4C16,1,16.2,1,16.4,1
	c0.2,0,0.4,0,0.6,0.1s0.4,0.2,0.5,0.4c0.2,0.2,0.3,0.3,0.4,0.5S18,2.4,18,2.6c0,0.2,0,0.4-0.1,0.6c-0.1,0.2-0.2,0.4-0.4,0.5L9.4,12
	l8.2,8.2c0.3,0.3,0.5,0.7,0.5,1.2c0,0.4-0.2,0.8-0.5,1.2c-0.3,0.3-0.7,0.5-1.2,0.5c-0.4,0-0.9-0.2-1.2-0.5L5.9,13.2z"/>
</svg>
