<svg xmlns="http://www.w3.org/2000/svg" xml:space="preserve" viewBox="0 0 26 26"><path d="M17.4 6.5h-.3c.1.1.1.2.2.3s.1.2.2.3c.1-.1.1-.2.1-.3 0 0 0-.1-.1-.1 0-.1 0-.1-.1-.2M6.8 19.7h-1c0-1.5-.1-2.9-.3-4.4l-1.4 4.4h-.7L2 15.3c-.1 1.5-.2 2.9-.2 4.4H1c.1-2 .2-3.8.4-5.5h1.2l1.3 4.1 1.3-4.1h1.1c.3 2 .4 3.8.5 5.5m4-4.1q-.6 3-1.5 4.5c-.5.7-1 1.1-1.6 1.1-.2 0-.3 0-.6-.1v-.5h.4c.3 0 .5-.1.6-.2q.3-.3.3-.6c0-.2-.1-.5-.2-.9l-1-3.2h.9l.8 2.3c.2.5.2.9.2 1.1.4-1.1.7-2.2.8-3.5zm12.3 4.1h-2.6v-5.5h.9V19h1.7zm-3.3.1-1-.5c.1-.1.2-.2.3-.2.4-.5.6-1.3.6-2.3 0-1.8-.7-2.7-2.2-2.7-.7 0-1.3.2-1.7.7s-.6 1.3-.6 2.2q0 1.5.6 2.1c.3.4.9.6 1.6.6.3 0 .5 0 .7-.1l1.3.8zm-3.3-1.2c-.2-.4-.3-.9-.3-1.7 0-1.4.4-2.1 1.3-2.1.4 0 .8.2 1 .5.2.4.3.9.3 1.7 0 1.4-.4 2.1-1.3 2.1-.5 0-.8-.2-1-.5m-1.7-.4c0 .5-.2.9-.5 1.2s-.8.5-1.4.5c-.5 0-1.1-.2-1.6-.5l.2-.5q.6.3 1.2.3c.3 0 .6-.1.8-.2.1-.1.2-.2.2-.3.1-.1.1-.2.1-.3 0-.3-.2-.6-.6-.8s-1.2-.7-1.2-.7c-.4-.3-.6-.6-.6-1.2 0-.5.2-.8.5-1.1s.7-.4 1.2-.4 1 .1 1.4.4l-.2.4c-.3-.1-.7-.2-1.1-.2-.3 0-.5.1-.7.2l-.2.2c0 .1-.1.2-.1.3 0 .3.2.6.7.9.4.2 1.2.7 1.2.7.5.2.7.5.7 1.1m9.4-5.9c-.5 0-1 0-1.3.2-.1 0-.3 0-.3.2.1.1.1.1.1.2.1.1.2.3.3.4s.3.2.4.3c.3.2.6.3.8.4.1.1.3.2.4.3l.2.2c0-.1-.1-.1-.1-.2l-.2-.2c-.2-.3-.4-.5-.7-.7-.2-.1-.7-.3-.8-.6.1 0 .3-.1.5-.1.2-.1.4 0 .7-.1.1 0 .2-.1.3-.1v-.1c-.1-.1-.2-.3-.3-.4-.3-.3-.7-.6-1.1-.8-.2-.1-.5-.2-.7-.3-.1 0-.2-.1-.3-.1-.1-.1-.2-.3-.3-.5-.2-.4-.4-.8-.5-1.2-.1-.3-.2-.5-.3-.8-.7-1.1-1.4-1.8-2.6-2.5q-.3-.15-.9-.3H17c-.1 0-.2-.2-.3-.2-.4-.2-1.4-.8-1.6-.1-.2.4.3.9.4 1.1s.3.3.3.5c.2.1.2.2.3.3l.3.9c.1.1.2.3.2.4l.2.2c-.1.1-.1.3-.2.5-.2.8-.1 1.7.2 2.3.1.2.4.5.7.4s.2-.5.3-.8v-.2l.3.6c.2.3.6.7.9.9.2.1.3.3.5.4 0-.1-.1-.1-.2-.1-.1-.1-.2-.3-.3-.4-.3-.4-.5-.8-.7-1.2l-.3-.6c0-.1 0-.2-.1-.2-.1.1-.2.3-.3.5-.1.3-.1.6-.2 1-.2-.1-.3-.3-.4-.5-.2-.5-.2-1.2-.1-1.8 0-.1.2-.6.2-.7s-.2-.2-.2-.3c-.1-.1-.2-.3-.2-.4-.2-.4-.2-.8-.4-1.2-.1-.2-.2-.4-.3-.5-.1-.2-.3-.3-.4-.5 0-.1-.1-.2 0-.3 0-.1 0-.1.1-.1.1-.1.3 0 .4.1.2.1.5.2.7.3.1.1.2.2.3.2h.1c.2 0 .5 0 .7.1.4.1.7.3 1 .5.9.6 1.6 1.4 2.1 2.3-.1-.1-.1.1 0 .2.1.3.3.7.5 1 .1.3.3.6.5.9.1.1.5.2.7.3.1.1.3.1.5.2s.5.3.7.5c0 0 .3.2.3.3"/></svg>