<svg xmlns="http://www.w3.org/2000/svg" xml:space="preserve" viewBox="0 0 26 26"><path d="M21.7 14.3c-.8 0-1.5.2-2.2.5-.2-.4-.4-.7-.5-1.1q-.15-.45 0-.9c.1-.3.2-.7.3-1 0 0-.1-.3-.5-.3-.5 0-.9.1-.9.2-.1.2-.2.5-.2.7-.4 1-.9 1.9-1.5 2.8-.3-.5-.5-1.2-.4-1.8.1-.3.2-.7.3-1 0 0-.1-.3-.5-.3-.5 0-.9.1-.9.2s-.1.4-.2.7-1.3 2.9-1.6 3.6c-.2.3-.3.6-.4.8l-.1.3c-.3.2-.3.3-.4.3-.1-.2-.1-.5 0-.7.2-.9.6-2.3.6-2.4 0 0 .1-.3-.3-.4-.1 0-.2-.1-.3 0-.1 0-.2.1-.2.1l-.1.1s.4-1.6-.7-1.6c-.4.1-.8.3-1.2.5s-.7.6-.9.9c-.2.2-.9.5-1.5.9-.3.1-.5.3-.8.4l-.1-.1c-1.3-1.4-3.8-2.5-3.7-4.4 0-.7.3-2.5 4.8-4.8 3.7-1.8 6.6-1.3 7.1-.2.7 1.6-1.6 4.6-5.4 5-.4.1-.9.1-1.3 0s-.8-.3-1.1-.6c-.2-.2-.2-.2-.3-.2-.1.1 0 .3 0 .4.1.3.3.5.6.7.2.3.5.4.8.5 1.5.3 3.1.2 4.5-.4 2.3-.9 4.1-3.4 3.6-5.5s-4-2.8-7.4-1.6c-2.1.7-4 1.8-5.7 3.2C1.2 9.5.9 11 1 11.6c.4 2.2 3.5 3.6 4.7 4.7-.1 0-.1.1-.2.1-.6.3-2.9 1.5-3.5 2.8-.7 1.5.1 2.5.6 2.6.8.2 1.6.2 2.3-.1q1.05-.45 1.8-1.5c.4-.5.6-1.2.6-1.8.1-.6 0-1.3-.3-1.9l.5-.3c.3-.2.6-.3.9-.5-.2.5-.3 1.1-.3 1.6-.1.8.2 1.7.7 2.3.1.1.2.1.3.2h.3c.5 0 .7-.4 1-.9.3-.6.6-1.3.6-1.3s-.4 2 .6 2c.4 0 .7-.5.9-.7l.1-.1c.1-.2.5-.8.9-1.7.6-1.2 1.2-2.7 1.2-2.7.1.3.1.7.2 1 .1.4.3.8.5 1.1-.1.2-.2.3-.2.3-.1.1-.2.3-.4.5-.4.4-.8.9-1.1 1.4q-.15.15 0 .3c0 .1.1.2.2.2.2.1.4.1.6.1.3 0 .6-.1.9-.2s.5-.2.8-.4c.2-.2.4-.4.6-.7.1-.3.2-.6.2-.8 0-.4-.1-.7-.3-1.1 0-.1.1-.1.1-.2.5-.7.9-1.5 1.3-2.3.1.3.1.7.2 1s.3.7.4 1c-.6.4-1 1-1.3 1.6-.3.8-.1 1.2.3 1.2.2 0 .4 0 .6-.1.3-.1.6-.2.8-.4q.45-.3.6-.6c.2-.3.2-.6.3-.9 0-.3-.1-.6-.2-.9.7-.3 1.5-.4 2.3-.3 2.1.2 2.5 1.5 2.4 2.1 0 .2-.1.4-.2.5-.1.2-.3.3-.4.4s-.2.1-.2.2.1.1.2.1c.3-.1.6-.3.8-.5q.3-.45.3-.9c.1-1.4-1.2-2.8-3.3-2.8M5.6 19.8c-.7.8-1.7 1-2.1.8-.4-.3-.3-1.4.6-2.2.5-.5 1-.9 1.6-1.2.1-.1.3-.2.4-.3l.1-.1c.2.5.2 1 0 1.6 0 .5-.3 1-.6 1.4m5-3.5c-.2.6-.7 2.1-1.1 2-.3-.1-.4-1.2-.1-2.3.2-.5.5-1 .8-1.5.4-.4.8-.6.9-.4 0 .8-.2 1.5-.5 2.2m4.2 2c-.1.1-.2.1-.2.1v-.1s.5-.6.7-.8c.1-.1.3-.3.4-.5 0 .7-.6 1.1-.9 1.3m3.2-.7c-.1-.1-.1-.2.2-.8.2-.4.4-.7.7-.9 0 .1.1.3.1.4 0 .3-.1.6-.3.8s-.4.4-.7.5"/></svg>