<svg xmlns="http://www.w3.org/2000/svg" xml:space="preserve" viewBox="0 0 26 26"><path d="M13 1C6.4 1 1 6.4 1 13s5.4 12 12 12 12-5.4 12-12S19.6 1 13 1M2.2 13c0-1.6.3-3 .9-4.4l5.1 14.1c-3.5-1.7-6-5.4-6-9.7M13 23.8c-1.1 0-2.1-.2-3-.4l3.2-9.4 3.3 9.1s0 .1.1.1q-1.65.6-3.6.6m1.5-15.9c.6 0 1.2-.1 1.2-.1.6-.1.5-.9-.1-.9 0 0-1.8.1-2.9.1s-2.8-.1-2.8-.1c-.6 0-.6.9-.1.9 0 0 .6.1 1.1.1l1.7 4.6-2.4 7.1L6.4 7.9c.6 0 1.2-.1 1.2-.1.6 0 .5-.9 0-.8 0 0-1.8.1-2.9.1H4c1.9-2.9 5.3-4.9 9-4.9 2.8 0 5.4 1.1 7.3 2.8h-.1c-1.1 0-1.9 1-1.9 2 0 .9.5 1.6 1.1 2.5.4.7.9 1.6.9 3 0 .9-.4 2-.8 3.5l-1.1 3.6zm8-.1c1.3 2.5 1.7 5.4.9 8.1s-2.5 5-5 6.4l3.3-9.5c.6-1.5.8-2.8.8-3.9z"/></svg>