<?xml version="1.0" encoding="utf-8"?>
<!-- Generator: Adobe Illustrator 23.0.3, SVG Export Plug-In . SVG Version: 6.00 Build 0)  -->
<svg version="1.1" id="Calque_1" xmlns="http://www.w3.org/2000/svg" xmlns:xlink="http://www.w3.org/1999/xlink" x="0px" y="0px"
	 viewBox="0 0 26 26" style="enable-background:new 0 0 26 26;" xml:space="preserve">
<style type="text/css">
	.st0{clip-path:url(#SVGID_2_);}
	.st1{fill:url(#SVGID_3_);}
</style>
<g>
	<defs>
		<rect id="SVGID_1_" x="1.2" y="0.8" width="24" height="24"/>
	</defs>
	<clipPath id="SVGID_2_">
		<use xlink:href="#SVGID_1_"  style="overflow:visible;"/>
	</clipPath>
	<g class="st0">
		
			<linearGradient id="SVGID_3_" gradientUnits="userSpaceOnUse" x1="10.537" y1="21.7623" x2="16.1371" y2="7.7622" gradientTransform="matrix(1 0 0 -1 0 28)">
			<stop  offset="0" style="stop-color:#02BEB3"/>
			<stop  offset="1" style="stop-color:#1A5576"/>
		</linearGradient>
		<path class="st1" d="M13.2,18.9c-6.6,0-12-2.7-12-6.1s5.4-6.1,12-6.1c6.6,0,12,2.7,12,6.1S19.8,18.9,13.2,18.9z M8,10.9
			c0.5,0,0.9,0.1,1.1,0.3c0.2,0.2,0.2,0.6,0.1,1c-0.1,0.5-0.3,0.9-0.6,1.1c-0.3,0.2-0.7,0.3-1.3,0.3H6.4L7,10.9H8z M4.5,16.5h1.4
			l0.3-1.7h1.2c0.5,0,1-0.1,1.3-0.2c0.3-0.1,0.7-0.3,1-0.6c0.2-0.2,0.4-0.5,0.6-0.7c0.2-0.3,0.3-0.6,0.3-0.9c0.2-0.8,0-1.4-0.3-1.8
			c-0.4-0.4-1-0.6-1.8-0.6H5.7L4.5,16.5z M11.7,8.1l-1.3,6.6h1.4l0.7-3.8h1.1c0.4,0,0.6,0.1,0.7,0.2c0.1,0.1,0.1,0.3,0.1,0.7
			l-0.6,2.9h1.5l0.6-3.1c0.1-0.6,0-1.1-0.3-1.4c-0.3-0.3-0.9-0.4-1.6-0.4h-1.3l0.4-1.8H11.7z M19.2,10.9c0.5,0,0.9,0.1,1.1,0.3
			c0.2,0.2,0.2,0.6,0.1,1c-0.1,0.5-0.3,0.9-0.6,1.1c-0.3,0.2-0.7,0.3-1.3,0.3h-0.9l0.5-2.8H19.2z M15.7,16.5h1.4l0.3-1.7h1.2
			c0.6,0,1-0.1,1.3-0.2c0.4-0.1,0.6-0.3,1-0.6c0.2-0.2,0.4-0.5,0.6-0.7c0.1-0.3,0.3-0.6,0.3-0.9c0.2-0.8,0-1.4-0.3-1.8
			c-0.4-0.4-1-0.6-1.8-0.6h-2.8L15.7,16.5z"/>
	</g>
</g>
</svg>
