<?xml version="1.0" encoding="utf-8"?>
<!-- Generator: Adobe Illustrator 23.0.3, SVG Export Plug-In . SVG Version: 6.00 Build 0)  -->
<svg version="1.1" id="Calque_1" xmlns="http://www.w3.org/2000/svg" xmlns:xlink="http://www.w3.org/1999/xlink" x="0px" y="0px"
	 viewBox="0 0 26 26" style="enable-background:new 0 0 26 26;" xml:space="preserve">
<style type="text/css">
	.st0{clip-path:url(#SVGID_2_);}
	.st1{fill:url(#SVGID_3_);}
</style>
<g>
	<defs>
		<rect id="SVGID_1_" x="0.9" y="1.1" width="24" height="24"/>
	</defs>
	<clipPath id="SVGID_2_">
		<use xlink:href="#SVGID_1_"  style="overflow:visible;"/>
	</clipPath>
	<g class="st0">
		
			<linearGradient id="SVGID_3_" gradientUnits="userSpaceOnUse" x1="9.8863" y1="29.2975" x2="20.5663" y2="6.0175" gradientTransform="matrix(1 0 0 -1 0 28)">
			<stop  offset="0" style="stop-color:#02BEB3"/>
			<stop  offset="1" style="stop-color:#1A5576"/>
		</linearGradient>
		<path class="st1" d="M8.6,1.1v8h7.8c0.3,0,0.5,0.2,0.5,0.5v7.8h8V1.6c0-0.1-0.1-0.3-0.1-0.4c-0.1-0.1-0.2-0.1-0.4-0.1H8.6z
			 M8.1,1.6L1,8.7c0,0-0.1,0.1-0.1,0.1c0,0,0,0.1,0,0.1C0.9,9,1,9,1,9.1c0,0,0.1,0,0.1,0h6.9V1.6z M8.6,9.6v7.3
			c0,0.3,0.2,0.5,0.5,0.5h7.3v-7.3c0-0.3-0.2-0.5-0.5-0.5H8.6z M16.8,17.9v6.9c0,0.2,0.3,0.3,0.4,0.2l7.1-7.1H16.8z"/>
	</g>
</g>
</svg>
