<?xml version="1.0" encoding="utf-8"?>
<!-- Generator: Adobe Illustrator 23.0.3, SVG Export Plug-In . SVG Version: 6.00 Build 0)  -->
<svg version="1.1" id="Calque_1" xmlns="http://www.w3.org/2000/svg" xmlns:xlink="http://www.w3.org/1999/xlink" x="0px" y="0px"
	 viewBox="0 0 26 26" style="enable-background:new 0 0 26 26;" xml:space="preserve">
<style type="text/css">
	.st0{fill:url(#SVGID_1_);}
</style>
<linearGradient id="SVGID_1_" gradientUnits="userSpaceOnUse" x1="7.801" y1="24.4313" x2="18.1691" y2="6.1433" gradientTransform="matrix(1 0 0 -1 0 28)">
	<stop  offset="0" style="stop-color:#02BEB3"/>
	<stop  offset="1" style="stop-color:#1A5576"/>
</linearGradient>
<path class="st0" d="M13.1,0.9c-1.6,0-3.1,0.3-4.6,0.9C7.1,2.4,5.7,3.3,4.6,4.4c-2.3,2.3-3.5,5.3-3.5,8.5s1.3,6.2,3.5,8.5
	c1.1,1.1,2.4,2,3.9,2.6c1.5,0.6,3,0.9,4.6,0.9c3.2,0,6.2-1.3,8.5-3.5c2.3-2.3,3.5-5.3,3.5-8.5c0-1.6-0.3-3.1-0.9-4.6
	c-0.6-1.5-1.5-2.8-2.6-3.9c-1.1-1.1-2.4-2-3.9-2.6C16.2,1.2,14.7,0.9,13.1,0.9z M18.3,5.4c1.2,0,2.1,0.5,2.2,1.4
	c0,0.4-0.2,1.1-0.9,1.1c-0.6,0-0.9-0.3-1-0.8c0-0.2,0.3-0.8,0.3-0.9c0-0.3-0.5-0.3-0.6-0.3c-1.8,0.1-2.3,2.5-2.7,4.5l-0.2,1
	c1,0.2,1.8,0,2.2-0.3c0.6-0.4-0.2-0.8-0.1-1.2c0.1-0.4,0.5-0.6,0.8-0.7c0.4,0,0.8,0.4,0.7,0.9c0,0.8-1,1.8-3,1.8c-0.3,0-0.5,0-0.7,0
	c-0.7,3.7-1.2,5.9-2.8,7.8c-1.4,1.7-2.8,1.9-3.5,1.9c-1.2,0-2-0.6-2-1.4c0-0.8,0.7-1.3,1.2-1.3c0.6,0,1.1,0.4,1.1,1
	c0,0.4-0.2,0.6-0.4,0.7c-0.1,0.1-0.3,0.2-0.3,0.4c0,0.1,0.1,0.3,0.3,0.3c0.5,0,0.8-0.3,1.1-0.4c1.2-1,1.6-2.7,2.2-5.7
	c0.3-1.7,0.5-2.9,0.9-4c-0.8-0.6-1.3-1.4-2.4-1.7c-0.8-0.2-1.2,0-1.5,0.4c-0.4,0.5-0.3,1.1,0.1,1.5c1.4,1.5,1.8,2.2,1.6,3.1
	c-0.2,1.5-2,2.6-4,1.9c-1.7-0.5-2.1-1.8-1.9-2.4c0.2-0.6,0.7-0.7,1.1-0.6C6.8,13.4,7,14,6.8,14.4c0,0-0.3,0.5-0.3,0.6
	c-0.1,0.4,0.4,0.6,0.7,0.7C8,16,8.8,15.6,9,15c0.2-0.6-0.2-1-0.3-1.1c-1.1-1.2-1.8-2.2-1.5-3.4C7.3,10,7.6,9.5,8,9.2
	c0.9-0.7,1.9-0.8,2.8-0.5c1.2,0.3,1.8,1.1,2.5,1.7c0.4-1.2,1-2.4,1.9-3.5C16.1,6.1,17.1,5.4,18.3,5.4z"/>
</svg>
