<?xml version="1.0" encoding="utf-8"?>
<!-- Generator: Adobe Illustrator 23.0.3, SVG Export Plug-In . SVG Version: 6.00 Build 0)  -->
<svg version="1.1" id="Calque_1" xmlns="http://www.w3.org/2000/svg" xmlns:xlink="http://www.w3.org/1999/xlink" x="0px" y="0px"
	 viewBox="0 0 26 26" style="enable-background:new 0 0 26 26;" xml:space="preserve">
<style type="text/css">
	.st0{fill:url(#SVGID_1_);}
</style>
<linearGradient id="SVGID_1_" gradientUnits="userSpaceOnUse" x1="7.9207" y1="26.7384" x2="18.0008" y2="4.6584" gradientTransform="matrix(1 0 0 -1 0 28)">
	<stop  offset="0" style="stop-color:#02BEB3"/>
	<stop  offset="1" style="stop-color:#1A5576"/>
</linearGradient>
<path class="st0" d="M13.2,0.8c-6.6,0-12,5.4-12,12s5.4,12,12,12c6.6,0,12-5.4,12-12S19.8,0.8,13.2,0.8z M2.4,12.8
	c0-1.6,0.3-3,0.9-4.4l5.1,14.1C4.9,20.7,2.4,17.1,2.4,12.8z M13.2,23.6c-1.1,0-2.1-0.2-3-0.4l3.2-9.4l3.3,9.1c0,0,0,0.1,0.1,0.1
	C15.6,23.4,14.4,23.6,13.2,23.6z M14.7,7.7c0.6,0,1.2-0.1,1.2-0.1c0.6-0.1,0.5-0.9-0.1-0.9c0,0-1.8,0.1-2.9,0.1
	c-1.1,0-2.8-0.1-2.8-0.1c-0.6,0-0.6,0.9-0.1,0.9c0,0,0.6,0.1,1.1,0.1l1.7,4.6l-2.4,7.1L6.6,7.7c0.6,0,1.2-0.1,1.2-0.1
	c0.6-0.1,0.5-0.9-0.1-0.9c0,0-1.8,0.1-2.9,0.1c-0.2,0-0.4,0-0.7,0C6.1,3.9,9.4,2,13.2,2c2.8,0,5.4,1.1,7.3,2.8c0,0-0.1,0-0.1,0
	c-1.1,0-1.8,0.9-1.8,1.9c0,0.9,0.5,1.6,1.1,2.5c0.4,0.7,0.9,1.6,0.9,3c0,0.9-0.4,2-0.8,3.5l-1.1,3.6L14.7,7.7z M22.7,7.6
	c1.3,2.5,1.7,5.4,0.9,8.1c-0.8,2.7-2.5,5-5,6.4l3.3-9.5c0.6-1.5,0.8-2.8,0.8-3.9C22.7,8.3,22.7,8,22.7,7.6z"/>
</svg>
