<svg width="100" height="100" fill="none" xmlns="http://www.w3.org/2000/svg"><path d="M50 8.333A41.666 41.666 0 0 0 8.333 50c0 18.417 11.959 34.042 28.5 39.583 2.084.334 2.75-.958 2.75-2.083v-7.042c-11.541 2.5-14-5.583-14-5.583-1.916-4.833-4.625-6.125-4.625-6.125-3.791-2.583.292-2.5.292-2.5 4.167.292 6.375 4.292 6.375 4.292C31.25 76.875 37.375 75 39.75 74c.375-2.708 1.458-4.542 2.625-5.583-9.25-1.042-18.958-4.625-18.958-20.5 0-4.625 1.583-8.334 4.291-11.292-.416-1.042-1.875-5.375.417-11 0 0 3.5-1.125 11.458 4.25C42.875 28.958 46.458 28.5 50 28.5s7.125.458 10.417 1.375c7.958-5.375 11.458-4.25 11.458-4.25 2.292 5.625.833 9.958.417 11 2.708 2.958 4.291 6.667 4.291 11.292 0 15.916-9.75 19.416-19.041 20.458 1.5 1.292 2.875 3.833 2.875 7.708V87.5c0 1.125.666 2.458 2.791 2.083C79.75 84 91.667 68.417 91.667 50A41.665 41.665 0 0 0 50 8.333Z" fill="#02BEB3"/></svg>