<svg width="100" height="100" fill="none" xmlns="http://www.w3.org/2000/svg"><path d="M32.5 8.333h35c13.333 0 24.167 10.834 24.167 24.167v35A24.167 24.167 0 0 1 67.5 91.667h-35c-13.333 0-24.167-10.834-24.167-24.167v-35A24.167 24.167 0 0 1 32.5 8.333Zm-.833 8.334a15 15 0 0 0-15 15v36.666c0 8.292 6.708 15 15 15h36.666a15 15 0 0 0 15-15V31.667c0-8.292-6.708-15-15-15H31.667Zm40.208 6.25a5.208 5.208 0 1 1 0 10.416 5.208 5.208 0 0 1 0-10.416ZM50 29.167a20.833 20.833 0 1 1 0 41.666 20.833 20.833 0 0 1 0-41.666Zm0 8.333a12.5 12.5 0 1 0 0 25 12.5 12.5 0 0 0 0-25Z" fill="#02BEB3"/></svg>